<?xml version="1.0" standalone="no"?>
<!DOCTYPE svg PUBLIC "-//W3C//DTD SVG 20010904//EN"
 "http://www.w3.org/TR/2001/REC-SVG-20010904/DTD/svg10.dtd">
<svg version="1.0" xmlns="http://www.w3.org/2000/svg"
 width="1200.000000pt" height="442.000000pt" viewBox="0 0 1200.000000 442.000000"
 preserveAspectRatio="xMidYMid meet">

<g transform="translate(0.000000,442.000000) scale(0.100000,-0.100000)"
fill="#000000" stroke="none">
<path d="M6560 4360 c-73 -37 -105 -61 -140 -102 -24 -29 -208 -241 -408 -471
-322 -371 -362 -420 -350 -435 7 -9 39 -48 71 -86 32 -37 57 -69 55 -70 -2 -2
-38 -22 -80 -45 l-77 -42 -323 287 c-178 158 -330 293 -339 301 -14 11 -29 6
-113 -39 -74 -41 -102 -62 -122 -93 l-25 -40 6 83 c6 83 6 84 -17 76 -752
-235 -1089 -349 -1179 -397 -96 -51 -99 -53 -99 -87 1 -70 29 -542 33 -547 3
-2 43 6 91 18 48 12 88 20 90 18 2 -2 6 -32 9 -66 l7 -63 -73 6 c-178 15 -419
-51 -576 -159 l-44 -30 7 49 c16 119 18 185 7 266 -35 261 -186 484 -434 643
-220 139 -449 191 -802 182 -378 -10 -701 -95 -1100 -292 -267 -132 -438 -242
-547 -352 l-86 -88 266 -447 c147 -247 271 -448 277 -448 5 1 51 18 100 40 50
21 93 36 96 32 3 -4 196 -439 428 -967 232 -528 425 -966 429 -972 6 -10 112
21 413 118 392 127 407 132 498 192 52 34 98 65 103 68 6 4 -25 140 -72 320
-45 173 -83 323 -86 334 -3 11 8 -2 24 -30 107 -179 276 -308 472 -361 100
-27 300 -25 409 4 140 38 272 107 397 209 l41 33 6 -62 c4 -35 10 -102 13
-150 5 -64 11 -88 21 -88 7 0 180 25 385 55 l372 55 103 53 103 52 2 246 3
246 709 -351 709 -351 96 51 96 52 3 334 2 335 107 26 c72 18 147 46 228 86
66 32 121 58 122 57 2 -2 -10 -83 -27 -181 -16 -99 -28 -180 -27 -181 6 -3
845 -134 863 -134 12 0 54 18 94 40 40 22 76 40 80 40 3 0 28 -40 54 -90 26
-49 51 -92 56 -95 4 -3 40 13 80 36 40 22 74 39 76 36 2 -2 11 -59 19 -127 9
-68 17 -125 18 -126 1 -1 224 -41 496 -90 l494 -87 83 44 c125 66 116 51 99
160 -9 52 -18 106 -21 120 -5 26 -3 27 48 34 72 9 123 22 186 47 29 11 55 18
58 15 3 -3 -2 -70 -11 -149 -8 -78 -16 -154 -18 -167 l-2 -25 322 -46 c178
-26 325 -49 327 -51 3 -3 8 -64 12 -137 6 -122 8 -132 28 -138 12 -3 161 -51
332 -105 171 -54 317 -99 325 -99 8 0 56 24 108 53 l95 52 438 1320 c240 726
438 1334 438 1350 l0 30 -448 108 c-246 59 -453 108 -460 107 -7 0 -44 -16
-82 -35 l-70 -35 -6 27 c-3 16 -9 42 -13 58 l-7 30 -435 96 c-239 54 -485 108
-548 120 l-113 24 -97 -52 -96 -52 4 -280 3 -281 -61 0 c-128 0 -301 -52 -435
-130 -37 -22 -71 -40 -75 -40 -3 0 -42 226 -85 502 -43 276 -81 510 -84 520
-4 17 -27 18 -362 18 l-358 0 -107 -60 -107 -59 -297 -3 -296 -3 -92 -53 c-73
-42 -93 -58 -97 -80 -3 -15 -13 -70 -21 -122 -9 -52 -18 -96 -19 -98 -2 -1
-25 16 -52 38 -128 106 -326 188 -506 210 -54 7 -98 14 -98 15 0 2 144 81 320
175 245 132 318 175 312 186 -35 63 -439 654 -447 653 -5 0 -53 -22 -105 -49z
m200 -408 c62 -85 108 -158 104 -162 -24 -23 -670 -337 -679 -330 -5 5 -18 21
-27 37 l-16 29 246 296 c136 164 250 294 253 290 4 -4 57 -76 119 -160z m1970
-547 c0 -3 34 -225 75 -492 41 -268 75 -492 75 -498 0 -6 -20 -37 -45 -70
-126 -167 -195 -368 -195 -564 0 -125 25 -226 86 -351 39 -77 62 -109 128
-175 45 -44 109 -96 144 -115 92 -51 90 -50 98 -116 l6 -61 -253 39 c-140 21
-263 40 -274 43 -19 4 -26 38 -90 467 -37 255 -71 467 -75 471 -4 4 -27 -45
-53 -110 -25 -65 -69 -178 -97 -251 -29 -74 -56 -130 -60 -125 -7 7 -249 522
-287 612 -8 18 -16 32 -18 30 -2 -2 -28 -164 -59 -359 -31 -195 -59 -366 -62
-379 -6 -27 20 -30 -301 26 -197 34 -213 38 -213 57 0 12 15 107 34 213 l33
192 111 118 112 118 -33 29 c-17 16 -53 49 -80 72 l-47 42 80 484 c45 266 84
496 88 511 l7 29 257 3 c231 2 258 1 262 -14 3 -9 30 -155 61 -326 31 -170 59
-319 62 -330 3 -11 37 153 75 370 38 215 71 396 73 403 3 9 50 12 190 12 102
0 185 -2 185 -5z m-4215 -357 c10 -181 22 -328 26 -328 5 0 391 532 481 664 3
5 114 -94 246 -220 l241 -229 -52 -55 c-28 -30 -162 -172 -297 -315 -135 -143
-263 -278 -283 -301 l-37 -41 314 -124 314 -123 33 -55 c74 -125 237 -265 384
-332 73 -33 215 -74 288 -84 l47 -6 0 -225 c0 -123 -2 -224 -5 -224 -3 0 -365
180 -805 400 l-801 400 3 -420 c3 -367 1 -421 -12 -425 -37 -10 -392 -56 -398
-51 -3 3 -12 82 -19 175 l-15 168 35 69 c81 160 118 357 98 514 -21 167 -69
284 -165 407 l-56 72 -30 346 c-17 191 -30 348 -30 350 0 2 -42 -8 -92 -21
-51 -13 -94 -24 -95 -24 -2 0 -3 42 -3 93 l0 93 48 12 c26 7 173 50 327 96
154 46 283 81 286 78 4 -4 15 -154 24 -334z m-2503 246 c238 -30 404 -108 558
-263 138 -139 194 -270 192 -451 -2 -246 -127 -496 -366 -735 -71 -70 -159
-146 -213 -183 -51 -34 -90 -68 -88 -75 31 -94 265 -1031 259 -1037 -17 -16
-426 -142 -434 -133 -5 4 -209 458 -455 1008 -246 550 -449 1003 -452 1007 -2
4 -54 -17 -115 -48 -60 -30 -111 -54 -113 -52 -1 2 -75 126 -165 277 l-162
274 22 17 c42 32 265 148 372 194 163 71 280 111 439 150 261 65 483 81 721
50z m4613 -129 c92 -19 198 -63 270 -111 76 -50 168 -138 163 -157 -1 -8 -147
-168 -323 -356 -176 -187 -321 -345 -323 -351 -10 -28 178 9 273 55 42 20 99
60 143 101 l73 67 22 -20 c154 -136 317 -287 317 -294 0 -12 -128 -120 -198
-167 -262 -179 -646 -267 -904 -208 -281 63 -477 243 -545 496 -27 102 -25
294 5 390 40 127 88 206 182 301 128 129 279 209 470 250 107 22 276 24 375 4z
m3755 -81 c184 -37 340 -72 346 -78 6 -6 18 -47 27 -91 38 -185 209 -992 214
-1010 3 -11 35 103 74 265 134 555 171 705 179 714 7 6 524 -99 538 -110 3 -2
-756 -2315 -762 -2321 -3 -3 -372 109 -377 115 -4 4 -12 248 -18 542 -13 633
-21 821 -32 770 -4 -19 -45 -246 -90 -505 -45 -258 -86 -474 -90 -479 -7 -7
-258 26 -381 50 -33 7 -33 6 -17 185 l12 126 73 78 c125 131 212 281 256 443
26 95 31 315 9 401 -32 125 -93 240 -173 327 l-41 45 12 137 c6 75 14 158 18
183 l5 46 -78 20 -79 19 3 79 c4 92 9 115 25 115 7 0 163 -30 347 -66z m-615
-539 c135 -35 262 -123 331 -232 106 -165 117 -399 28 -601 -88 -199 -277
-378 -478 -450 -257 -93 -501 -49 -668 120 -108 111 -164 265 -155 428 6 114
25 187 73 284 117 237 336 405 599 460 51 10 216 5 270 -9z m-4380 -304 c6
-27 4 -33 -6 -29 -8 3 -60 23 -116 44 l-103 39 103 103 102 102 6 -112 c3 -62
9 -128 14 -147z m-1729 154 c346 -66 545 -407 449 -770 -18 -71 -81 -207 -125
-271 -89 -128 -253 -261 -391 -316 -199 -80 -414 -75 -582 14 -129 68 -242
216 -283 368 -24 90 -22 242 4 341 70 262 289 504 540 596 137 51 260 63 388
38z"/>
<path d="M1880 2662 c-46 -15 -95 -37 -108 -47 -3 -2 87 -302 175 -587 67
-214 48 -202 173 -108 198 150 281 310 252 484 -19 120 -68 188 -169 238 -60
29 -77 33 -167 35 -77 2 -114 -1 -156 -15z m190 -224 c64 -33 81 -71 78 -175
-2 -45 0 -79 3 -75 3 4 18 25 33 47 31 46 34 40 7 -13 -21 -40 -91 -126 -97
-119 -3 2 -27 78 -55 168 -27 90 -52 170 -54 177 -7 19 36 14 85 -10z"/>
<path d="M6274 2868 c-121 -18 -238 -107 -290 -221 -25 -53 -29 -75 -29 -152
0 -81 3 -97 32 -157 39 -83 118 -167 138 -147 79 86 485 552 485 559 0 14 -59
59 -112 86 -57 29 -152 43 -224 32z m85 -220 c-35 -41 -102 -117 -149 -171
-46 -53 -87 -97 -91 -97 -15 0 -34 69 -33 121 1 37 9 72 24 104 31 63 66 78
174 73 78 -3 82 -3 105 25 13 15 26 26 29 23 2 -3 -24 -38 -59 -78z"/>
<path d="M9422 2399 c-229 -73 -306 -340 -147 -516 213 -237 620 -98 619 212
0 50 -6 83 -21 115 l-21 45 -1 -37 c-4 -149 -173 -235 -320 -162 -161 81 -141
284 35 348 l39 15 -60 0 c-33 0 -88 -9 -123 -20z"/>
<path d="M3365 2222 c-145 -50 -224 -157 -225 -302 0 -129 67 -234 190 -297
50 -25 65 -28 160 -28 96 0 110 2 163 29 68 35 130 98 160 164 31 67 31 200 0
257 l-22 40 -1 -44 c-1 -159 -209 -242 -350 -140 -122 89 -99 254 45 320 l40
19 -55 -1 c-30 0 -77 -7 -105 -17z"/>
<path d="M11288 433 c19 -4 22 -11 24 -61 l1 -57 6 54 c5 42 11 56 26 62 13 5
4 7 -30 7 -27 0 -40 -3 -27 -5z"/>
<path d="M11380 380 c0 -33 4 -60 10 -60 6 0 10 17 11 38 l0 37 16 -37 c8 -21
19 -38 23 -38 4 0 14 21 21 48 l14 47 6 -50 6 -50 1 63 c2 70 -10 81 -28 25
-18 -57 -26 -59 -40 -9 -19 68 -40 61 -40 -14z"/>
</g>
</svg>
