<?xml version="1.0" standalone="no"?>
<!DOCTYPE svg PUBLIC "-//W3C//DTD SVG 20010904//EN"
 "http://www.w3.org/TR/2001/REC-SVG-20010904/DTD/svg10.dtd">
<svg version="1.0" xmlns="http://www.w3.org/2000/svg"
 width="242.000000pt" height="346.000000pt" viewBox="0 0 242.000000 346.000000"
 preserveAspectRatio="xMidYMid meet">

<g transform="translate(0.000000,346.000000) scale(0.100000,-0.100000)"
fill="#000000" stroke="none">
<path d="M1040 3060 l0 -240 -75 0 -75 0 0 -35 0 -35 105 0 c58 0 105 -3 105
-6 0 -3 -35 -73 -79 -157 -43 -84 -181 -352 -306 -597 -125 -245 -230 -448
-234 -452 -5 -5 -270 37 -276 44 -2 2 -15 70 -29 153 -15 82 -31 152 -35 155
-4 3 -28 22 -54 43 -55 46 -81 46 -85 0 -3 -29 3 -37 51 -74 l55 -42 23 -139
23 -138 36 -9 c19 -5 82 -17 140 -27 58 -9 109 -21 113 -25 5 -4 -18 -58 -51
-120 -33 -63 -114 -221 -181 -351 l-122 -238 396 0 395 0 0 -280 0 -280 -59 0
c-72 0 -91 -6 -91 -30 0 -24 19 -30 100 -30 110 0 100 -31 100 316 l0 304 225
0 225 0 0 -304 c0 -347 -10 -316 100 -316 81 0 100 6 100 30 0 24 -19 30 -91
30 l-59 0 0 280 0 280 379 2 379 3 -179 349 c-99 192 -178 351 -175 353 4 4
262 53 279 53 5 0 6 7 3 16 -4 9 -2 22 3 28 4 6 19 71 31 144 l23 132 53 46
c54 45 65 69 42 92 -21 21 -42 13 -96 -34 -42 -37 -52 -52 -52 -77 -1 -42 -45
-285 -54 -294 -11 -11 -260 -53 -267 -46 -3 5 -66 125 -139 268 -73 143 -211
412 -307 598 -95 185 -173 339 -173 342 0 3 52 5 115 5 l115 0 0 35 0 35 -75
0 -75 0 0 240 0 240 -110 0 -110 0 0 -240z m275 -620 c85 -170 155 -312 155
-314 0 -3 -29 12 -64 32 l-64 37 30 31 c16 18 26 34 20 37 -5 4 -23 -9 -41
-27 l-32 -33 -62 13 c-34 7 -74 13 -89 14 -27 0 -28 1 -28 60 0 33 -4 60 -10
60 -6 0 -10 -27 -10 -60 0 -52 -3 -60 -18 -60 -11 0 -54 -9 -98 -20 l-78 -20
-29 28 -29 29 126 251 c102 203 130 252 146 252 16 0 49 -59 175 -310z m-430
-240 c10 -11 16 -22 14 -24 -13 -12 -89 -55 -89 -51 0 11 45 95 50 95 4 0 15
-9 25 -20z m395 -17 c64 -17 161 -67 186 -94 16 -18 16 -20 0 -38 -24 -26
-121 -76 -186 -95 -72 -22 -209 -22 -280 0 -65 19 -162 69 -186 95 -16 18 -16
20 0 38 21 23 116 74 170 91 94 30 194 31 296 3z m-421 -193 c24 -16 49 -31
55 -33 6 -3 -4 -21 -23 -41 -19 -19 -31 -39 -27 -43 4 -4 24 10 45 32 l37 40
64 -17 c36 -9 75 -17 88 -17 20 -1 22 -6 22 -61 0 -33 4 -60 10 -60 6 0 10 26
10 58 l0 58 86 13 86 13 38 -37 c21 -20 40 -33 43 -27 4 5 -9 24 -28 42 l-34
33 40 19 c23 10 57 31 78 46 20 16 42 32 48 36 9 5 108 -184 328 -624 l315
-630 -1000 0 -1000 0 316 631 c315 630 315 631 337 615 12 -9 42 -30 66 -46z"/>
<path d="M1111 2130 c-25 -41 -27 -77 -7 -125 17 -41 30 -44 50 -12 26 40 25
114 -3 148 l-19 23 -21 -34z"/>
<path d="M930 1440 l0 -100 95 47 95 48 95 -48 95 -47 0 100 0 100 -95 -47
-95 -48 -95 48 -95 47 0 -100z"/>
</g>
</svg>
