<?xml version="1.0" standalone="no"?>
<!DOCTYPE svg PUBLIC "-//W3C//DTD SVG 20010904//EN"
 "http://www.w3.org/TR/2001/REC-SVG-20010904/DTD/svg10.dtd">
<svg version="1.0" xmlns="http://www.w3.org/2000/svg"
 width="960.000000pt" height="720.000000pt" viewBox="0 0 960.000000 720.000000"
 preserveAspectRatio="xMidYMid meet">

<g transform="translate(0.000000,720.000000) scale(0.100000,-0.100000)"
fill="#000000" stroke="none">
<path d="M0 3600 l0 -3600 4800 0 4800 0 0 3600 0 3600 -4800 0 -4800 0 0
-3600z m4050 2895 c0 -189 2 -225 14 -225 8 0 18 -4 21 -10 4 -6 -12 -10 -39
-10 -34 0 -46 4 -46 15 0 12 -6 11 -32 -5 -89 -54 -178 4 -178 115 0 98 66
165 162 165 l48 0 0 56 c0 46 -4 59 -22 74 l-23 19 35 15 c63 27 60 37 60
-209z m2700 6 c0 -215 0 -219 23 -234 21 -15 18 -16 -48 -16 -58 0 -66 2 -47
11 22 11 22 14 22 203 0 159 -3 195 -15 205 -21 18 -19 25 13 37 54 22 52 29
52 -206z m-1953 173 c9 -24 -10 -49 -38 -49 -24 0 -36 23 -25 51 7 19 55 18
63 -2z m-2547 -12 c0 -5 -11 -14 -25 -20 l-25 -12 0 -175 c0 -96 4 -175 8
-175 5 0 17 -7 28 -15 17 -13 11 -14 -66 -15 l-85 0 32 20 32 19 0 165 c0 135
-3 168 -15 181 -9 8 -20 15 -25 15 -5 0 -9 5 -9 10 0 6 32 10 75 10 41 0 75
-4 75 -8z m2378 -49 c4 -61 -7 -68 -31 -18 l-17 35 -75 0 -75 0 0 -75 0 -75
47 0 c39 0 51 5 70 28 l22 27 0 -70 0 -70 -22 28 c-19 22 -31 27 -70 27 l-47
0 0 -85 c0 -82 1 -86 25 -95 14 -5 25 -12 25 -15 0 -3 -37 -5 -82 -5 -79 1
-82 1 -55 16 l27 15 0 179 c0 99 -4 180 -8 180 -5 0 -17 7 -28 15 -17 13 -3
14 136 12 l155 -2 3 -52z m1249 38 c46 -21 63 -45 63 -90 0 -33 -39 -86 -70
-96 -18 -6 -15 -13 32 -83 28 -42 65 -89 81 -104 l29 -28 -45 0 -46 0 -62 95
c-54 84 -64 95 -90 95 l-29 0 0 -80 c0 -76 1 -80 28 -94 26 -14 23 -15 -58
-15 -81 0 -84 1 -57 15 l27 15 0 179 0 180 -25 6 c-54 13 -20 24 78 24 78 0
112 -5 144 -19z m1091 -117 c47 -3 52 -4 52 -17 0 -7 -12 -13 -27 -14 -16 0
-34 -1 -40 -2 -10 -1 -13 -28 -13 -101 0 -91 2 -100 21 -111 12 -6 32 -9 45
-6 13 2 24 1 24 -4 0 -14 -44 -39 -70 -39 -14 0 -36 7 -48 16 -21 14 -22 23
-22 130 0 107 -1 114 -20 114 -26 0 -26 17 0 25 10 3 29 23 42 43 l23 37 5
-35 c4 -28 10 -35 28 -36z m-4428 -9 c33 -17 40 -49 14 -59 -10 -4 -25 3 -40
19 -16 18 -33 25 -59 25 -29 0 -39 -6 -55 -32 -22 -37 -25 -80 -9 -127 18 -52
89 -76 154 -51 37 14 28 -8 -15 -37 -88 -60 -200 7 -200 120 0 18 10 53 23 77
36 72 119 100 187 65z m300 -12 c23 -20 33 -40 37 -70 l6 -43 -98 0 -97 0 6
-32 c3 -18 18 -44 33 -56 21 -19 35 -23 72 -20 25 3 54 8 65 13 31 14 14 -17
-25 -43 -27 -19 -43 -23 -82 -19 -68 6 -108 46 -115 116 -6 64 2 92 35 131 48
58 114 67 163 23z m455 2 c23 -23 25 -31 25 -130 l0 -105 32 0 c30 0 31 0 13
-20 -23 -25 -60 -26 -81 -1 -16 19 -17 19 -48 0 -74 -45 -148 2 -122 79 9 26
44 46 109 63 42 10 47 14 47 40 0 66 -89 96 -100 34 -3 -18 -12 -31 -24 -33
-50 -10 -36 54 17 81 50 25 103 21 132 -8z m212 5 c3 -11 7 -20 10 -20 3 0 16
9 30 20 32 25 93 26 122 3 19 -16 21 -29 22 -131 1 -111 2 -113 28 -127 24
-13 22 -14 -49 -14 -61 0 -71 2 -52 11 21 10 22 17 22 108 0 61 -4 100 -12
108 -7 7 -30 12 -53 12 -23 0 -46 -5 -53 -12 -8 -8 -12 -46 -12 -104 0 -84 2
-93 23 -107 21 -15 19 -16 -48 -16 -66 -1 -68 0 -47 15 20 14 22 23 22 108 0
81 -3 95 -20 111 -21 19 -21 19 12 37 43 22 49 22 55 -2z m1283 -109 c0 -123
1 -131 22 -145 21 -15 19 -16 -47 -15 -58 0 -66 2 -47 11 21 10 22 17 22 108
0 86 -2 99 -21 116 l-21 19 39 17 c21 9 41 17 46 17 4 1 7 -57 7 -128z m200
99 c0 -17 2 -17 25 5 39 40 99 28 87 -17 -4 -16 -10 -19 -38 -13 -65 12 -74
-3 -74 -115 0 -80 3 -100 14 -100 8 0 18 -4 21 -10 4 -6 -19 -10 -62 -9 -65 0
-67 1 -45 16 20 14 22 23 22 108 0 81 -3 94 -21 111 l-21 19 38 17 c43 18 54
16 54 -12z m365 6 c24 -24 49 -92 39 -108 -3 -4 -48 -8 -100 -8 -102 0 -104
-1 -78 -55 25 -52 93 -68 169 -39 20 7 20 7 0 -15 -87 -99 -236 -42 -235 91 1
50 34 115 72 138 46 28 103 26 133 -4z m884 8 c25 -18 51 -71 51 -104 0 -19
-6 -20 -100 -20 -55 0 -100 -2 -100 -5 0 -22 33 -76 54 -90 26 -17 89 -17 131
0 15 6 12 -1 -11 -24 -38 -40 -93 -50 -147 -27 -94 39 -96 206 -4 265 39 25
94 27 126 5z m306 -9 c23 -23 25 -31 25 -130 l0 -105 32 0 c30 0 31 0 13 -20
-23 -25 -60 -26 -81 -1 -16 19 -17 19 -48 0 -39 -24 -77 -24 -105 -1 -27 21
-32 49 -15 83 13 26 59 50 122 64 26 5 32 11 32 34 0 43 -27 73 -63 69 -28 -3
-32 -7 -35 -35 -3 -27 -8 -33 -27 -33 -31 0 -38 13 -24 43 25 56 131 75 174
32z m640 13 c3 -3 -6 -8 -20 -12 -14 -4 -25 -11 -25 -17 0 -6 18 -50 41 -98
l40 -86 35 88 c19 49 34 93 34 97 0 5 -10 12 -21 15 -32 11 -6 22 44 19 62 -2
64 -4 36 -19 -21 -11 -41 -51 -100 -192 -74 -180 -111 -238 -146 -231 -23 4
-25 52 -3 54 8 1 22 2 31 3 14 1 59 78 59 102 0 5 -26 65 -57 134 -38 83 -63
125 -76 129 -10 2 -16 9 -13 14 6 10 131 10 141 0z m-4565 -2316 c0 -71 4
-112 12 -120 9 -9 7 -12 -10 -12 -12 0 -22 5 -22 10 0 7 -7 7 -21 0 -29 -16
-68 -4 -81 25 -22 50 18 115 72 115 27 0 30 3 30 29 0 17 -5 33 -11 37 -11 6
6 23 24 24 4 0 7 -49 7 -108z m102 -12 c3 -114 2 -120 -17 -120 -19 0 -20 7
-20 113 0 102 5 126 27 127 4 0 8 -54 10 -120z m1548 65 c0 -52 1 -55 19 -45
27 14 58 13 68 -2 4 -7 10 -41 13 -75 l5 -63 -29 0 c-23 0 -27 3 -18 12 7 7
12 33 12 59 0 50 -11 62 -49 52 -18 -4 -21 -13 -21 -52 0 -26 5 -52 12 -59 9
-9 4 -12 -22 -12 -26 0 -31 3 -22 12 16 16 16 194 1 204 -8 4 -7 9 2 15 25 16
29 9 29 -46z m2100 -59 c0 -82 4 -116 13 -119 6 -3 2 -6 -10 -6 -12 -1 -25 4
-29 10 -4 8 -9 8 -17 0 -16 -16 -53 -13 -71 5 -9 9 -16 32 -16 54 0 30 6 43
26 59 15 12 37 21 50 21 20 0 24 5 24 29 0 17 -5 33 -12 37 -8 5 -6 10 8 15
10 4 22 8 27 8 4 1 7 -50 7 -113z m-2744 93 c10 -17 -13 -36 -27 -22 -12 12
-4 33 11 33 5 0 12 -5 16 -11z m2204 -9 c0 -11 -7 -20 -15 -20 -8 0 -15 9 -15
20 0 11 7 20 15 20 8 0 15 -9 15 -20z m1440 0 c0 -11 -7 -20 -15 -20 -8 0 -15
9 -15 20 0 11 7 20 15 20 8 0 15 -9 15 -20z m-5342 1 c22 -1 62 -33 62 -50 0
-23 -39 -54 -76 -60 -35 -6 -39 -9 -42 -40 -2 -23 2 -37 15 -47 16 -12 15 -13
-19 -14 -35 0 -37 2 -30 23 10 26 8 155 -2 178 -6 13 0 15 31 13 21 -1 48 -2
61 -3z m2826 -1 c18 -6 26 -17 26 -32 l0 -23 -18 23 c-24 30 -66 27 -70 -5 -2
-16 7 -28 37 -47 48 -31 62 -53 50 -83 -23 -62 -130 -54 -129 10 1 20 2 20 16
-5 19 -37 79 -41 90 -6 7 23 -6 38 -65 70 -40 22 -42 58 -5 87 31 24 34 24 68
11z m876 0 c0 -5 -4 -12 -10 -15 -12 -7 -14 -75 -2 -75 4 0 25 17 45 38 29 30
35 40 25 50 -10 10 -7 12 12 8 14 -2 28 -5 32 -5 4 -1 -14 -21 -40 -46 l-47
-44 60 -61 c45 -46 55 -60 40 -60 -11 0 -45 26 -77 57 l-58 57 0 -43 c0 -30 6
-48 18 -57 15 -12 12 -13 -28 -13 -37 0 -42 2 -29 12 11 9 15 33 16 100 0 48
-4 87 -9 87 -5 0 -7 3 -5 8 7 10 57 12 57 2z m-1470 -50 c0 -5 9 -10 20 -10
11 0 20 -4 20 -10 0 -5 -9 -10 -20 -10 -18 0 -20 -7 -20 -54 0 -49 2 -55 23
-59 20 -3 21 -4 3 -12 -33 -15 -51 7 -54 69 -2 31 -7 56 -12 56 -11 0 21 38
33 39 4 1 7 -3 7 -9z m-2100 -21 c0 -8 5 -8 15 1 16 13 45 7 45 -9 0 -5 -12
-11 -27 -13 -25 -3 -28 -7 -31 -46 -2 -24 2 -50 9 -58 9 -12 6 -14 -22 -14
-26 0 -30 3 -21 12 16 16 15 91 0 106 -10 10 -10 15 2 22 20 13 30 12 30 -1z
m200 -9 c43 -43 13 -130 -44 -130 -33 0 -65 29 -72 65 -13 67 69 112 116 65z
m90 -35 c0 -43 4 -56 19 -65 36 -19 51 -3 51 55 0 33 -5 55 -12 59 -7 3 -2 4
12 3 23 -2 25 -6 28 -62 2 -32 8 -65 14 -72 8 -10 4 -13 -16 -13 -14 0 -26 4
-26 9 0 5 -13 4 -29 -2 -44 -16 -61 3 -61 67 0 29 -5 57 -12 64 -9 9 -7 12 10
12 20 0 22 -5 22 -55z m461 46 c-11 -7 -11 -16 4 -55 20 -51 26 -50 45 8 10
32 10 40 -1 47 -10 6 -3 9 20 9 32 0 33 -1 19 -17 -9 -10 -31 -54 -49 -98 -18
-44 -37 -86 -42 -92 -11 -15 -37 -17 -37 -3 0 6 6 10 14 10 7 0 19 14 27 32
12 29 10 36 -23 100 l-35 68 36 0 c24 0 32 -3 22 -9z m273 3 c9 -3 16 -13 16
-22 0 -13 -3 -12 -20 3 -19 18 -50 15 -50 -5 0 -6 16 -20 35 -31 43 -26 48
-63 11 -80 -30 -14 -73 -5 -73 16 0 19 5 19 24 0 19 -19 47 -16 51 6 2 10 -11
25 -33 37 -63 38 -30 103 39 76z m160 -10 c9 -8 16 -24 16 -35 0 -16 -7 -19
-45 -19 -39 0 -45 -3 -45 -20 0 -24 37 -41 71 -34 23 5 23 5 5 -10 -67 -54
-140 38 -85 108 23 29 60 34 83 10z m96 4 c0 -9 3 -9 12 0 7 7 37 12 68 12 33
0 50 -4 42 -9 -11 -6 -10 -16 4 -49 9 -23 19 -42 23 -42 3 0 13 18 22 39 12
28 14 42 6 50 -8 8 -4 11 15 11 l25 0 -36 -70 c-20 -38 -39 -70 -42 -70 -4 0
-17 25 -29 55 -24 59 -44 83 -55 65 -3 -5 -17 -10 -31 -10 -22 0 -24 -4 -24
-48 0 -26 5 -53 12 -60 9 -9 5 -12 -21 -12 -23 0 -30 3 -24 13 11 17 11 79 0
101 -6 13 -5 21 4 27 19 12 29 11 29 -3z m292 -125 c8 -10 3 -13 -23 -13 -26
0 -30 3 -21 12 14 14 16 94 2 103 -16 10 -12 23 8 27 14 3 17 -6 20 -56 2 -33
8 -66 14 -73z m88 127 c0 -7 7 -7 21 0 11 7 32 9 45 6 22 -6 24 -11 24 -64 0
-32 5 -63 12 -70 9 -9 4 -12 -22 -12 -26 0 -31 3 -22 12 17 17 15 93 -3 108
-8 6 -23 9 -35 5 -16 -5 -20 -15 -20 -54 0 -26 5 -52 12 -59 9 -9 5 -12 -21
-12 -25 0 -31 3 -24 13 12 15 11 87 -1 106 -5 8 -4 16 5 22 19 12 29 11 29 -1z
m280 -1 c0 -5 -4 -9 -10 -9 -5 0 -10 -13 -10 -30 0 -32 -22 -50 -64 -50 -41 0
-61 54 -31 84 17 16 115 21 115 5z m518 -1 c5 -7 13 -23 16 -35 7 -22 5 -23
-43 -23 -37 0 -51 -4 -51 -14 0 -22 28 -39 61 -38 25 1 28 -2 18 -14 -16 -19
-63 -18 -81 4 -23 27 -28 50 -17 80 12 33 36 52 65 52 12 0 26 -6 32 -12z
m416 -10 c27 -38 20 -48 -34 -48 -53 0 -58 -5 -36 -35 8 -11 25 -18 45 -17 27
1 30 -2 20 -14 -16 -19 -58 -18 -81 3 -25 23 -24 87 2 113 27 27 65 26 84 -2z
m87 13 c-13 -8 -12 -16 4 -51 17 -39 20 -41 32 -23 22 29 27 64 12 74 -10 6
-3 9 20 9 31 0 33 -1 20 -17 -8 -10 -26 -42 -39 -70 -13 -29 -27 -53 -31 -53
-4 0 -15 21 -25 46 -9 25 -26 56 -36 70 l-19 24 38 0 c27 0 34 -3 24 -9z m217
-3 c5 -7 13 -23 16 -35 7 -22 5 -23 -43 -23 -37 0 -51 -4 -51 -14 0 -22 28
-39 63 -38 30 1 31 0 13 -14 -54 -40 -120 18 -95 84 12 33 36 52 65 52 12 0
26 -6 32 -12z m114 0 c16 16 55 16 65 0 4 -7 10 -41 13 -75 l5 -63 -29 0 c-23
0 -27 3 -18 12 7 7 12 33 12 59 0 50 -17 67 -54 53 -19 -7 -23 -93 -4 -112 9
-9 4 -12 -22 -12 -26 0 -31 3 -22 12 15 15 16 105 0 114 -8 5 -6 10 8 14 10 4
22 2 26 -4 5 -8 11 -7 20 2z m478 -51 c0 -36 5 -68 12 -75 9 -9 5 -12 -17 -12
l-30 0 0 68 c0 61 7 81 28 82 4 0 7 -28 7 -63z m115 53 c8 14 48 13 63 -2 7
-7 12 -35 12 -63 0 -28 5 -56 12 -63 9 -9 5 -12 -20 -12 -28 0 -31 2 -23 23
11 29 7 85 -6 98 -6 6 -20 8 -32 4 -18 -5 -21 -14 -21 -60 0 -33 5 -55 13 -58
6 -3 -1 -6 -18 -6 l-30 -1 0 68 c0 68 9 89 31 71 8 -7 14 -6 19 1z m265 -1 c0
-5 -6 -9 -14 -9 -8 0 -12 -8 -9 -23 6 -31 -21 -57 -59 -57 -47 0 -28 -24 23
-30 37 -4 45 -9 47 -28 5 -35 -25 -62 -68 -62 -47 0 -70 22 -51 52 9 15 10 23
0 34 -9 11 -9 18 -1 26 6 6 8 26 5 46 -5 27 -2 38 12 48 20 15 115 17 115 3z
m329 -15 c28 -35 26 -69 -4 -99 -47 -48 -115 -19 -115 50 0 70 77 102 119 49z
m122 19 c23 9 34 9 50 -2 15 -9 24 -10 32 -2 15 15 54 14 64 -1 4 -7 10 -41
13 -75 l5 -63 -30 1 c-16 0 -24 3 -17 6 7 3 12 25 12 58 0 46 -3 55 -21 60
-12 4 -25 3 -30 -2 -15 -15 -20 -95 -8 -110 9 -10 5 -13 -22 -13 -26 0 -30 3
-21 12 18 18 15 93 -4 109 -37 30 -67 -46 -41 -103 6 -15 3 -18 -25 -18 -23 0
-29 3 -19 9 10 6 12 25 9 70 -3 38 0 62 6 64 6 2 12 1 14 -3 2 -5 16 -3 33 3z
m298 -18 c3 -20 3 -20 -17 -2 -12 11 -26 16 -31 12 -20 -12 -11 -34 18 -49 36
-19 43 -38 24 -65 -20 -29 -76 -26 -82 4 -3 20 -3 20 17 1 23 -20 52 -16 52 8
0 8 -16 23 -35 35 -19 11 -35 27 -35 35 0 43 81 62 89 21z m220 0 c3 -19 3
-19 -16 -2 -24 21 -39 22 -47 2 -4 -11 6 -22 29 -36 57 -34 41 -94 -22 -87
-18 2 -29 10 -31 22 -4 19 -3 19 13 2 21 -20 48 -17 53 5 2 10 -11 25 -33 37
-19 12 -35 28 -35 36 0 43 81 62 89 21z m91 -38 c0 -36 5 -68 12 -75 9 -9 5
-12 -17 -12 l-30 0 0 68 c0 61 7 81 28 82 4 0 7 -28 7 -63z m115 53 c8 14 48
13 63 -2 7 -7 12 -35 12 -63 0 -28 5 -56 12 -63 9 -9 5 -12 -17 -12 l-30 0 3
56 c4 62 -5 79 -37 69 -18 -5 -21 -14 -21 -60 0 -33 5 -55 13 -58 6 -3 -1 -6
-18 -6 l-30 -1 0 68 c0 68 9 89 31 71 8 -7 14 -6 19 1z m234 -3 c17 -22 1 -27
-26 -9 -24 15 -26 15 -45 -8 -13 -16 -17 -32 -13 -49 9 -37 20 -45 62 -44 35
1 36 0 18 -13 -69 -51 -143 49 -83 113 24 26 69 31 87 10z m145 -3 c9 -8 16
-24 16 -35 0 -16 -7 -19 -45 -19 -33 0 -45 -4 -45 -14 0 -23 41 -46 69 -40 25
5 25 5 7 -10 -46 -37 -101 -9 -101 52 0 68 59 107 99 66z m-3871 -98 c4 -9 23
-16 48 -18 84 -6 65 -88 -21 -88 -30 0 -42 5 -51 21 -7 15 -8 24 0 32 5 5 7
23 4 38 -6 30 10 41 20 15z m675 -212 c26 -18 28 -41 6 -65 -14 -16 -14 -19 5
-38 33 -33 27 -67 -16 -90 -31 -16 -63 -14 -85 6 -22 20 -23 33 -3 33 8 0 15
-7 15 -15 0 -25 67 -20 75 5 13 42 -11 68 -57 61 -20 -3 -5 18 17 23 25 6 43
45 30 65 -11 19 -53 13 -60 -9 -7 -23 -25 -27 -25 -6 0 17 38 46 60 46 9 0 26
-7 38 -16z m165 7 c4 -1 7 -5 7 -11 0 -5 -20 -10 -45 -10 -41 0 -45 -2 -45
-25 0 -21 5 -25 28 -25 43 0 72 -26 72 -65 0 -40 -37 -75 -81 -75 -31 0 -47
16 -31 32 6 6 12 6 16 -1 9 -15 49 -14 64 1 17 17 15 53 -3 68 -8 7 -30 16
-48 19 -29 6 -32 10 -32 45 -1 42 19 58 65 51 14 -2 28 -4 33 -4z m283 -93
c21 -51 42 -94 46 -96 21 -9 4 -22 -28 -22 -32 0 -35 2 -24 15 10 12 10 21 2
40 -9 20 -19 25 -50 25 -32 0 -39 -4 -49 -29 -8 -21 -8 -32 0 -40 8 -8 2 -11
-23 -11 -30 0 -32 1 -18 18 8 9 32 59 53 109 20 51 41 91 45 88 4 -2 24 -46
46 -97z m238 92 c20 -7 26 -17 26 -37 l-1 -28 -20 28 c-34 45 -96 34 -119 -23
-15 -35 -7 -86 17 -112 23 -25 77 -23 103 4 l20 22 0 -26 c0 -18 -7 -27 -22
-32 -119 -31 -205 76 -131 164 39 47 77 59 127 40z m-864 -95 c0 -57 4 -95 10
-95 6 0 10 -4 10 -10 0 -5 -17 -10 -37 -10 -34 1 -36 2 -20 14 13 11 17 29 17
90 0 42 -3 76 -6 76 -3 0 -14 -5 -26 -11 -34 -18 -31 -3 4 20 18 11 36 21 41
21 4 0 7 -43 7 -95z m3616 -648 c97 -56 150 -141 205 -333 10 -35 10 -227 0
-264 -7 -24 -7 -24 -29 12 -12 19 -22 40 -22 45 0 6 -7 16 -15 23 -13 11 -20
9 -41 -11 -25 -24 -26 -24 -40 -5 -8 11 -14 27 -14 36 0 10 -15 20 -44 28 -99
26 -121 84 -114 303 3 98 7 132 21 152 19 30 57 35 93 14z m273 -1512 c142 -5
144 -5 167 -32 13 -16 24 -30 24 -33 0 -3 18 -4 41 -2 38 4 41 3 35 -16 -10
-29 35 -35 49 -7 23 44 85 23 85 -29 0 -15 4 -34 9 -44 19 -34 41 -159 39
-217 -2 -33 1 -75 5 -92 8 -29 6 -34 -17 -44 -14 -7 -23 -16 -20 -20 3 -5 0
-9 -5 -9 -6 0 -11 18 -11 40 0 30 -7 46 -31 71 l-30 31 21 23 c21 22 21 27 10
77 -7 29 -16 63 -21 76 -5 13 -9 38 -9 57 0 28 -4 35 -19 35 -11 0 -23 -5 -27
-11 -3 -6 -15 -8 -26 -6 -34 9 -18 -36 20 -53 28 -13 32 -19 28 -42 -3 -17 0
-33 9 -42 17 -17 20 -42 5 -51 -5 -3 -10 -1 -10 5 0 6 -4 8 -10 5 -6 -4 -10
11 -11 37 -1 41 -2 42 -12 16 -6 -16 -20 -28 -35 -31 -34 -6 -52 1 -45 19 3 8
-1 14 -10 14 -10 0 -13 -8 -9 -26 3 -19 1 -25 -7 -20 -6 4 -11 18 -11 31 0 27
-16 42 -23 23 -7 -20 -19 -2 -19 27 0 14 -5 25 -10 25 -5 0 -7 4 -4 8 10 16
-11 35 -29 25 -16 -9 -16 -11 0 -27 11 -11 15 -25 11 -40 -3 -13 1 -37 9 -52
9 -19 11 -30 4 -33 -15 -5 -48 29 -43 44 3 7 -4 15 -15 18 -13 3 -19 1 -15 -5
4 -6 -7 -23 -25 -38 l-31 -28 35 -26 c29 -23 36 -25 41 -12 5 12 10 13 25 5
26 -14 24 -45 -5 -64 -13 -9 -26 -26 -28 -38 -3 -18 1 -22 20 -24 31 -1 42
-20 37 -60 -3 -22 1 -33 12 -37 13 -5 14 -9 5 -18 -7 -7 -12 -20 -12 -31 0
-18 1 -18 33 0 17 10 42 28 55 41 17 18 22 19 22 8 0 -23 18 -19 44 9 13 14
26 25 30 25 14 0 5 -31 -15 -49 -14 -13 -20 -27 -16 -40 6 -24 -8 -29 -17 -6
-5 13 -9 13 -26 3 -20 -13 -20 -13 0 -20 23 -9 27 -38 5 -38 -8 0 -15 -4 -15
-10 0 -5 -9 -10 -20 -10 -11 0 -28 -9 -37 -20 -13 -15 -30 -20 -65 -20 -51 0
-56 -4 -62 -47 -2 -15 -11 -41 -20 -58 -9 -16 -13 -37 -11 -46 6 -17 -21 -46
-31 -36 -4 3 -9 21 -13 38 -7 34 -31 53 -31 25 0 -9 -5 -16 -11 -16 -6 0 -9
14 -7 32 2 24 10 36 31 46 32 15 35 28 8 37 -10 3 -21 15 -24 25 -3 13 -14 20
-30 20 -23 0 -26 -4 -25 -40 0 -22 4 -37 9 -34 14 8 11 -6 -5 -21 -12 -12 -15
-12 -19 5 -3 13 -11 17 -26 13 -28 -7 -35 -21 -20 -39 10 -12 9 -16 -9 -21
-12 -3 -22 -9 -22 -14 0 -5 -4 -9 -8 -9 -5 0 -7 14 -6 30 1 18 -4 33 -13 38
-22 13 -23 77 -1 77 9 0 20 4 24 8 4 4 0 7 -9 7 -8 0 -22 3 -31 6 -12 4 -16 0
-16 -15 0 -24 -6 -27 -73 -35 -30 -4 -46 -2 -42 4 3 5 -10 16 -30 24 -19 8
-35 22 -35 30 0 25 12 46 26 46 16 0 17 14 14 140 -1 61 -6 87 -16 93 -8 4
-14 17 -14 27 0 11 -4 20 -10 20 -5 0 -10 11 -10 24 0 30 -28 42 -49 21 -14
-14 -14 -16 7 -22 28 -7 24 -26 -7 -28 -28 -2 -39 -19 -33 -51 2 -14 0 -24 -7
-24 -6 0 -11 10 -11 23 -1 20 -2 20 -11 5 -5 -10 -16 -18 -23 -18 -17 0 -27
-25 -19 -47 5 -14 8 -13 14 5 14 37 31 26 24 -15 -10 -62 -27 -113 -39 -113
-13 0 -13 60 -1 80 5 9 4 15 -3 18 -18 6 -16 92 3 92 12 0 12 5 0 41 -14 38
-13 43 1 54 12 8 15 20 9 43 -3 18 -11 32 -16 32 -5 0 -9 5 -9 10 0 6 6 10 14
10 20 0 27 26 20 72 -7 43 -26 57 -49 38 -13 -11 -32 -80 -41 -157 -3 -20 -10
-43 -16 -50 -7 -9 -7 -17 1 -27 11 -13 9 -77 -5 -131 -4 -16 -8 -51 -8 -77 -1
-26 -5 -48 -11 -48 -5 0 -10 6 -10 13 -1 6 -5 20 -9 29 -12 25 0 256 21 403
l18 130 35 17 c19 9 47 17 63 18 15 0 27 5 27 10 0 6 11 10 24 10 14 0 28 5
32 11 3 6 17 9 30 6 12 -2 44 0 71 5 92 18 168 23 233 15 36 -4 130 -10 209
-12z m301 -380 c0 -14 -4 -25 -10 -25 -9 0 -14 15 -11 33 1 5 -3 6 -8 2 -6 -3
-8 -12 -4 -20 3 -8 0 -15 -6 -15 -15 0 -14 23 1 38 20 20 38 14 38 -13z m-80
5 c8 -5 13 -10 10 -11 -3 0 -13 -2 -22 -4 -10 -2 -18 3 -18 11 0 16 9 18 30 4z
m-94 -87 c-10 -10 -19 5 -10 18 6 11 8 11 12 0 2 -7 1 -15 -2 -18z m104 1 c0
-14 -12 -19 -23 -8 -9 9 4 35 14 28 5 -3 9 -12 9 -20z m113 -4 c-3 -11 -9 -20
-14 -20 -14 0 -11 28 4 33 6 3 13 6 14 6 0 1 -1 -8 -4 -19z m-863 -26 c0 -8
-4 -12 -10 -9 -5 3 -10 10 -10 16 0 5 5 9 10 9 6 0 10 -7 10 -16z m867 -98
c11 -18 53 -40 53 -26 0 13 47 13 56 -1 3 -6 1 -16 -5 -22 -6 -6 -11 -30 -11
-54 0 -58 -18 -55 -22 5 -2 33 -7 47 -18 48 -35 2 -41 4 -35 13 3 5 -5 11 -17
13 -13 2 -24 11 -26 21 -4 20 14 23 25 3z m-807 -24 c0 -4 -5 -14 -10 -22 -8
-13 -10 -13 -10 1 0 9 -7 20 -16 23 -8 3 -12 10 -9 16 7 11 45 -5 45 -18z
m-63 -42 c25 0 52 -58 32 -71 -23 -14 -59 -11 -59 6 0 8 -4 15 -8 15 -12 0
-34 68 -26 82 5 8 13 5 25 -10 9 -12 26 -22 36 -22z m79 -10 c0 -11 -4 -20 -8
-20 -4 0 -8 9 -8 20 0 11 4 20 8 20 4 0 8 -9 8 -20z m800 -27 c-10 -10 -19 5
-10 18 6 11 8 11 12 0 2 -7 1 -15 -2 -18z m-111 -42 c3 -5 1 -12 -5 -16 -5 -3
-10 1 -10 9 0 18 6 21 15 7z m-967 -128 c5 -10 7 -31 5 -48 -1 -16 4 -47 12
-67 8 -21 11 -38 6 -38 -18 0 -29 27 -33 80 -2 30 -8 63 -12 73 -5 10 -4 17 3
17 5 0 14 -8 19 -17z m332 2 c7 -9 10 -18 7 -22 -8 -7 -37 15 -37 28 0 14 16
11 30 -6z m140 -25 c0 -5 -4 -10 -10 -10 -5 0 -10 5 -10 10 0 6 5 10 10 10 6
0 10 -4 10 -10z m-325 -20 c-3 -5 -14 -10 -23 -10 -15 0 -15 2 -2 10 20 13 33
13 25 0z m1025 -36 c0 -8 -5 -12 -10 -9 -6 4 -8 11 -5 16 9 14 15 11 15 -7z
m-455 -111 c-4 -16 -9 -49 -12 -75 -3 -27 -9 -48 -14 -48 -5 0 -9 -9 -9 -20 0
-11 -3 -20 -7 -20 -5 0 -18 -3 -30 -6 -20 -5 -23 -2 -23 20 0 21 -5 26 -26 26
-14 0 -23 4 -19 10 3 6 20 10 37 10 23 0 29 -4 24 -16 -4 -10 -1 -14 6 -12 19
7 22 40 5 53 -11 8 -14 23 -10 58 l6 47 39 0 c39 0 40 -1 33 -27z m-181 1 c20
-8 21 -34 1 -34 -8 0 -15 2 -15 4 0 2 -3 11 -6 20 -7 18 -4 19 20 10z m-473
-43 c-7 -5 -13 -20 -13 -35 0 -30 -10 -33 -29 -10 -12 14 -9 20 16 40 16 13
32 21 34 18 3 -3 -1 -9 -8 -13z m409 -5 c0 -3 -4 -8 -10 -11 -5 -3 -10 -1 -10
4 0 6 5 11 10 11 6 0 10 -2 10 -4z m-262 -33 c-2 -10 -13 -19 -26 -21 -24 -4
-25 -2 -16 22 9 23 46 21 42 -1z m303 -23 c0 -3 2 -13 4 -22 4 -21 -13 -23
-38 -3 -13 9 -17 20 -12 34 5 17 9 19 26 8 10 -6 19 -14 20 -17z m207 -103 c3
-12 -3 -17 -21 -17 -31 0 -39 9 -24 26 16 18 41 13 45 -9z m-3808 -86 c0 -25
3 -28 25 -23 24 4 25 3 23 -44 -1 -42 -2 -44 -5 -12 -4 38 -29 59 -40 33 -3
-9 -3 -26 -1 -39 3 -15 1 -23 -6 -20 -13 5 -18 134 -5 134 5 0 9 -13 9 -29z
m220 0 c0 -25 3 -28 25 -23 17 3 25 0 26 -9 0 -8 2 -28 4 -45 2 -18 -1 -31 -8
-31 -7 0 -12 16 -12 36 0 52 -28 49 -36 -4 -3 -22 -7 -38 -8 -35 -6 17 -5 140
2 140 4 0 7 -13 7 -29z m970 -11 c0 -40 15 -54 26 -25 4 8 11 15 17 15 5 0 2
-9 -8 -20 -17 -19 -17 -21 0 -40 10 -11 13 -20 8 -20 -6 0 -17 7 -24 16 -12
15 -14 14 -20 -7 -5 -16 -7 -5 -8 33 -1 31 -4 63 -7 72 -3 9 -1 16 5 16 6 0
11 -17 11 -40z m280 33 c-25 -10 -31 -27 -13 -40 14 -11 15 -13 1 -13 -12 0
-14 -9 -12 -42 2 -24 -1 -37 -6 -32 -14 14 -15 86 -1 112 6 12 19 22 29 21 14
0 14 -2 2 -6z m-2988 -68 c-2 -36 -7 -65 -12 -65 -5 0 -10 29 -12 65 -2 53 0
65 12 65 12 0 14 -12 12 -65z m518 61 c0 -3 -4 -8 -10 -11 -5 -3 -10 -1 -10 4
0 6 5 11 10 11 6 0 10 -2 10 -4z m420 -6 c0 -5 -2 -10 -4 -10 -3 0 -8 5 -11
10 -3 6 -1 10 4 10 6 0 11 -4 11 -10z m460 6 c0 -3 -4 -8 -10 -11 -5 -3 -10
-1 -10 4 0 6 5 11 10 11 6 0 10 -2 10 -4z m602 -53 c-5 -82 -20 -87 -24 -9 -2
54 0 66 12 66 12 0 14 -12 12 -57z m444 43 c15 -12 16 -17 7 -27 -10 -10 -9
-17 5 -32 16 -18 16 -20 -7 -38 -13 -10 -34 -19 -46 -19 -22 0 -24 5 -27 65
-3 64 -3 65 23 65 14 0 34 -6 45 -14z m682 2 c14 -14 16 -38 3 -38 -5 0 -11 9
-14 20 -7 29 -39 26 -35 -2 2 -13 10 -23 18 -24 28 -1 50 -16 50 -34 0 -24
-12 -31 -56 -35 l-36 -2 4 51 c1 28 -1 57 -5 64 -11 16 54 17 71 0z m-2240
-36 c-19 -4 -26 -62 -8 -62 6 0 10 -5 10 -11 0 -6 -6 -9 -12 -7 -12 4 -29 83
-21 92 2 2 14 1 26 -2 18 -5 19 -7 5 -10z m580 0 c-19 -4 -26 -62 -8 -62 6 0
10 -5 10 -11 0 -6 -6 -9 -12 -7 -12 4 -29 83 -21 92 2 2 14 1 26 -2 18 -5 19
-7 5 -10z m220 0 c-25 -5 -25 -62 -1 -62 13 0 14 -3 5 -12 -17 -17 -30 0 -32
42 -3 49 -3 49 23 42 18 -5 19 -7 5 -10z m-1579 -40 l-2 -47 -6 40 c-4 26 -11
40 -21 40 -10 0 -17 -14 -21 -40 -7 -47 -10 -45 -14 11 -3 40 -3 41 31 42 l34
1 -1 -47z m146 38 c4 -7 -2 -9 -18 -5 -17 5 -26 2 -30 -9 -10 -26 3 -46 32
-47 26 0 26 -1 4 -11 -41 -20 -74 37 -41 70 15 15 45 16 53 2z m93 -2 c34 -34
-6 -90 -48 -68 -35 19 -20 80 20 80 9 0 21 -5 28 -12z m58 -39 c1 -46 -13 -40
-16 6 -3 41 -1 50 7 41 4 -4 8 -25 9 -47z m52 2 c2 -30 0 -41 -8 -36 -6 4 -9
14 -5 22 3 9 -2 27 -11 40 -15 23 -14 25 3 21 13 -2 19 -14 21 -47z m50 -13
l-1 -63 -6 55 c-4 30 -5 58 -3 63 9 19 12 2 10 -55z m62 27 c0 -29 4 -35 21
-35 18 0 21 5 17 35 -2 19 0 35 4 35 4 0 8 -17 8 -39 0 -31 -4 -40 -22 -44
-12 -4 -28 -1 -35 5 -15 12 -18 78 -3 78 6 0 10 -16 10 -35z m161 -12 c3 -29
2 -43 -6 -43 -7 0 -10 11 -8 28 4 32 -10 58 -26 48 -6 -4 -11 -20 -11 -37 0
-41 -17 -36 -22 6 -5 43 -4 44 35 42 30 -2 32 -5 38 -44z m94 37 c4 -7 -2 -9
-18 -5 -29 8 -41 -6 -32 -35 4 -12 15 -20 28 -20 15 0 18 -3 10 -11 -17 -17
-53 7 -53 34 0 39 48 65 65 37z m114 -37 l-2 -48 -6 40 c-7 38 -5 55 5 55 2 0
3 -21 3 -47z m105 25 c30 -42 -20 -87 -57 -50 -18 18 -19 25 -9 47 14 31 45
33 66 3z m105 -26 l-2 -47 -6 40 c-4 26 -11 40 -21 40 -10 0 -17 -14 -21 -40
-7 -47 -10 -45 -14 11 -3 40 -2 41 31 42 l34 1 -1 -47z m104 26 c2 -13 8 -31
12 -40 4 -10 3 -18 -1 -18 -5 0 -17 18 -26 40 -13 31 -14 40 -3 40 7 0 15 -10
18 -22z m69 -51 c-2 -5 -13 5 -23 23 -11 17 -16 36 -13 42 8 12 43 -52 36 -65z
m38 69 c0 -11 -19 -15 -25 -6 -3 5 1 10 9 10 9 0 16 -2 16 -4z m40 -41 c0 -25
-4 -45 -9 -45 -9 0 -20 77 -12 86 14 13 21 -1 21 -41z m488 23 c3 -14 -3 -18
-23 -18 -33 0 -29 -22 6 -30 16 -4 20 -8 11 -14 -35 -21 -73 25 -52 64 14 25
53 24 58 -2z m202 11 c0 -5 -6 -8 -12 -6 -8 1 -15 -14 -19 -38 -3 -22 -7 -38
-9 -35 -5 10 -10 65 -6 75 5 13 46 17 46 4z m90 -9 c14 -27 4 -57 -21 -65 -25
-8 -49 11 -49 39 0 45 50 63 70 26z m108 -28 c2 -29 0 -42 -7 -37 -6 3 -11 19
-11 34 0 56 -39 49 -41 -8 l-2 -36 -6 40 c-4 22 -6 42 -5 45 2 3 17 6 36 5 32
0 33 -2 36 -43z m263 2 c5 -39 4 -41 -20 -40 -39 2 -55 15 -40 32 6 8 18 14
25 14 8 0 14 7 14 15 0 8 -7 15 -15 15 -8 0 -15 -5 -15 -12 0 -6 -3 -9 -6 -5
-12 11 8 28 29 25 17 -2 23 -12 28 -44z m107 -1 c2 -24 -1 -43 -7 -43 -5 0
-11 17 -13 38 -4 51 -33 52 -32 1 1 -20 -4 -36 -10 -36 -8 0 -14 72 -7 83 1 1
16 1 34 0 30 -1 32 -3 35 -43z m252 27 c22 -41 -12 -81 -51 -60 -22 12 -27 65
-6 73 26 11 47 6 57 -13z m320 9 c0 -5 -7 -9 -15 -9 -10 0 -15 -10 -15 -29 0
-17 -4 -33 -10 -36 -6 -4 -10 11 -10 38 0 41 2 45 25 45 14 0 25 -4 25 -9z
m81 -35 c5 -41 5 -41 -25 -40 -37 2 -50 34 -17 43 12 3 21 12 21 19 0 17 -12
18 -28 2 -7 -7 -12 -8 -12 -2 0 17 13 25 35 22 15 -2 21 -13 26 -44z m90 0 c5
-41 5 -41 -25 -40 -37 2 -48 31 -17 41 12 3 21 13 21 21 0 17 -12 18 -28 2 -7
-7 -12 -8 -12 -2 0 17 13 25 35 22 15 -2 21 -13 26 -44z m53 15 c3 -17 10 -28
16 -24 6 3 7 0 4 -9 -9 -23 -11 -21 -34 24 -16 31 -17 40 -6 40 7 0 16 -14 20
-31z m45 14 c-7 -10 -14 -20 -16 -22 -1 -2 -1 6 0 18 1 11 8 21 15 21 12 0 12
-3 1 -17z m89 5 c35 -35 -15 -99 -53 -68 -30 25 -12 80 25 80 9 0 21 -5 28
-12z m82 2 c0 -5 -7 -7 -15 -4 -23 9 -18 -12 8 -29 21 -14 21 -16 5 -32 -18
-19 -49 -14 -47 7 0 10 2 10 6 1 6 -17 33 -17 33 0 0 7 -9 18 -21 25 -16 11
-18 16 -9 28 14 16 40 19 40 4z m1470 -76 c13 -34 13 -34 -14 -34 -26 0 -36
14 -28 43 7 25 31 21 42 -9z m251 10 c21 -19 14 -44 -11 -44 -23 0 -44 26 -36
45 7 19 25 19 47 -1z m-507 -48 c-3 -9 -10 -16 -14 -16 -15 0 -20 32 -8 47 10
12 13 12 20 -1 4 -8 5 -21 2 -30z m441 34 c3 -5 -3 -10 -14 -10 -12 0 -21 5
-21 10 0 6 6 10 14 10 8 0 18 -4 21 -10z"/>
<path d="M3892 6500 c-42 -17 -68 -122 -41 -172 17 -32 74 -51 115 -38 l34 12
0 92 c0 90 -1 93 -25 104 -30 14 -51 14 -83 2z"/>
<path d="M5742 6553 c3 -67 5 -78 21 -77 9 1 28 2 41 3 34 2 65 31 72 68 9 48
-29 83 -91 83 l-46 0 3 -77z"/>
<path d="M2711 6484 c-36 -46 -29 -54 50 -54 l71 0 -6 28 c-14 56 -79 71 -115
26z"/>
<path d="M3220 6378 c-49 -14 -61 -27 -58 -62 3 -35 20 -42 74 -31 33 6 34 7
34 55 0 28 -3 50 -7 49 -5 0 -24 -5 -43 -11z"/>
<path d="M5228 6493 c-8 -10 -18 -28 -21 -40 -5 -22 -3 -23 69 -23 l74 0 -11
27 c-6 15 -15 33 -21 40 -15 19 -72 16 -90 -4z"/>
<path d="M6120 6490 c-11 -11 -20 -29 -20 -40 0 -18 7 -20 71 -20 68 0 70 1
63 23 -17 57 -75 76 -114 37z"/>
<path d="M6470 6378 c-49 -14 -61 -27 -58 -62 3 -35 20 -42 74 -31 33 6 34 7
34 55 0 28 -3 50 -7 49 -5 0 -24 -5 -43 -11z"/>
<path d="M2542 4204 c-48 -33 -16 -116 38 -99 16 5 20 15 20 50 0 54 -24 73
-58 49z"/>
<path d="M6279 4199 c-27 -27 -24 -65 6 -85 39 -25 55 -12 55 45 0 41 -3 50
-21 54 -13 3 -28 -2 -40 -14z"/>
<path d="M1877 4273 c-11 -10 -8 -71 4 -78 17 -11 58 4 69 25 8 15 6 24 -10
40 -20 20 -50 26 -63 13z"/>
<path d="M2186 4204 c-38 -37 0 -127 44 -104 36 19 19 120 -20 120 -5 0 -16
-7 -24 -16z"/>
<path d="M3180 4205 c-15 -19 -8 -27 25 -31 19 -2 25 2 25 16 0 10 -7 21 -16
24 -21 8 -20 8 -34 -9z"/>
<path d="M3907 4213 c-4 -3 -7 -19 -7 -34 0 -32 27 -46 49 -25 12 12 12 20 3
41 -11 24 -31 32 -45 18z"/>
<path d="M4463 4212 c-26 -16 -18 -35 15 -37 33 -1 41 12 20 33 -14 14 -19 14
-35 4z"/>
<path d="M4865 4203 c-18 -17 -17 -18 14 -27 36 -10 50 -2 35 21 -15 24 -29
26 -49 6z"/>
<path d="M5175 4204 c-20 -20 -15 -25 24 -28 32 -2 40 11 19 32 -16 16 -23 15
-43 -4z"/>
<path d="M6110 4205 c-18 -21 3 -68 28 -63 21 4 29 57 10 69 -18 12 -24 11
-38 -6z"/>
<path d="M6096 4065 c-9 -26 5 -45 34 -45 32 0 55 23 46 45 -7 20 -72 20 -80
0z"/>
<path d="M6462 4208 c-17 -17 -15 -84 4 -102 20 -20 27 -20 47 2 21 23 22 61
1 90 -17 25 -34 28 -52 10z"/>
<path d="M7702 4208 c-21 -21 -13 -33 21 -33 32 1 40 21 14 37 -16 10 -21 10
-35 -4z"/>
<path d="M3894 4065 c-11 -26 4 -45 35 -45 30 0 50 28 36 50 -10 16 -65 12
-71 -5z"/>
<path d="M4952 3845 c-17 -38 -15 -45 14 -45 22 0 24 3 18 23 -13 45 -20 49
-32 22z"/>
<path d="M8410 1541 c0 -11 4 -23 10 -26 6 -4 5 -13 -2 -24 -9 -15 -8 -22 6
-37 15 -14 19 -15 27 -3 6 10 9 10 9 2 0 -7 7 -13 15 -13 14 0 14 3 0 30 -9
17 -19 30 -23 30 -4 0 -8 12 -7 27 0 18 -6 29 -17 31 -13 2 -18 -3 -18 -17z"/>
<path d="M8278 1503 c6 -2 18 -2 25 0 6 3 1 5 -13 5 -14 0 -19 -2 -12 -5z"/>
<path d="M8305 1450 c3 -5 11 -10 16 -10 6 0 7 5 4 10 -3 6 -11 10 -16 10 -6
0 -7 -4 -4 -10z"/>
<path d="M7740 1425 c0 -8 4 -15 10 -15 5 0 7 7 4 15 -4 8 -8 15 -10 15 -2 0
-4 -7 -4 -15z"/>
<path d="M7910 1430 c0 -5 0 -12 0 -15 0 -12 14 -4 16 10 1 8 -2 15 -7 15 -5
0 -9 -4 -9 -10z"/>
<path d="M7972 1405 c-7 -8 -20 -11 -29 -8 -10 4 -14 2 -9 -5 3 -6 2 -13 -4
-17 -16 -10 -12 -31 8 -34 9 -2 34 -3 55 -4 40 -1 41 -4 40 -99 -1 -20 4 -28
17 -28 12 0 19 -10 22 -30 4 -26 1 -30 -19 -30 -13 0 -23 -3 -23 -6 0 -16 33
-35 58 -34 63 5 63 5 53 -49 -1 -2 -8 2 -16 9 -12 10 -15 9 -15 -8 0 -12 -11
-24 -30 -32 -33 -14 -38 -33 -14 -57 11 -12 18 -13 27 -4 19 19 27 12 21 -19
-6 -26 -4 -30 15 -30 26 0 40 28 20 40 -7 5 -10 12 -6 16 4 4 2 12 -3 19 -7 8
-3 15 15 23 25 12 30 7 26 -25 -1 -7 3 -13 9 -13 16 0 13 161 -5 203 -19 46
-52 77 -82 77 -13 0 -23 5 -23 11 0 15 21 53 34 61 6 5 1 8 -12 8 -15 0 -26 7
-29 20 -3 11 -13 20 -22 20 -9 0 -23 9 -31 20 -17 23 -30 25 -48 5z m166 -231
c30 -9 28 -30 -4 -38 -31 -8 -49 5 -41 28 7 18 11 19 45 10z m-3 -224 c3 -5 1
-10 -4 -10 -6 0 -11 5 -11 10 0 6 2 10 4 10 3 0 8 -4 11 -10z"/>
<path d="M7966 1256 c-3 -14 -4 -31 -1 -39 3 -7 0 -19 -8 -25 -14 -12 -11 -82
3 -82 4 0 11 21 14 48 2 26 8 64 12 85 7 41 -10 53 -20 13z"/>
<path d="M7690 1231 c0 -25 6 -27 13 -6 4 8 2 17 -3 20 -6 4 -10 -3 -10 -14z"/>
<path d="M7880 1201 c0 -12 5 -21 10 -21 6 0 10 6 10 14 0 8 -4 18 -10 21 -5
3 -10 -3 -10 -14z"/>
<path d="M8266 1201 c-3 -5 0 -11 8 -14 15 -6 26 1 26 15 0 11 -27 10 -34 -1z"/>
<path d="M8315 1120 c3 -5 8 -10 11 -10 2 0 4 5 4 10 0 6 -5 10 -11 10 -5 0
-7 -4 -4 -10z"/>
<path d="M8278 1103 c7 -3 16 -2 19 1 4 3 -2 6 -13 5 -11 0 -14 -3 -6 -6z"/>
<path d="M7920 1083 c0 -3 6 -14 14 -22 7 -9 16 -35 19 -58 4 -34 2 -43 -10
-43 -10 0 -13 -6 -9 -16 3 -9 6 -18 6 -20 0 -2 6 -4 14 -4 19 0 22 15 18 98
-3 69 -5 72 -28 72 -13 0 -24 -3 -24 -7z"/>
<path d="M7988 1027 c-3 -34 -3 -64 -1 -67 10 -11 23 29 23 72 0 70 -17 67
-22 -5z"/>
<path d="M8303 1061 c-3 -12 -9 -21 -14 -21 -14 0 -10 -23 7 -45 11 -15 17
-17 23 -7 5 9 17 11 34 6 38 -9 34 9 -9 52 -33 34 -36 35 -41 15z"/>
<path d="M8087 890 c3 -11 14 -20 24 -20 23 0 24 4 3 24 -21 22 -33 20 -27 -4z"/>
<path d="M7734 964 c3 -9 6 -18 6 -20 0 -2 9 -4 20 -4 24 0 27 25 4 34 -26 10
-36 7 -30 -10z"/>
<path d="M5350 295 c0 -27 1 -28 24 -19 28 11 13 44 -20 44 -2 0 -4 -11 -4
-25z"/>
<path d="M5350 241 c0 -27 13 -33 35 -17 21 15 12 36 -16 36 -12 0 -19 -7 -19
-19z"/>
<path d="M6030 241 c0 -24 13 -33 34 -25 27 10 20 44 -9 44 -18 0 -25 -5 -25
-19z"/>
<path d="M3252 248 c4 -43 33 -46 33 -3 0 21 -5 31 -18 33 -15 3 -18 -2 -15
-30z"/>
<path d="M3945 269 c-10 -16 4 -59 19 -59 17 0 28 27 21 51 -7 21 -30 25 -40
8z"/>
<path d="M4790 270 c0 -5 9 -10 21 -10 11 0 17 5 14 10 -3 6 -13 10 -21 10 -8
0 -14 -4 -14 -10z"/>
<path d="M5076 265 c-8 -21 11 -58 27 -52 19 6 15 61 -4 65 -9 2 -19 -4 -23
-13z"/>
<path d="M5452 229 c2 -6 8 -10 13 -10 5 0 11 4 13 10 2 6 -4 11 -13 11 -9 0
-15 -5 -13 -11z"/>
<path d="M5804 267 c-7 -20 14 -59 29 -54 20 6 15 61 -6 65 -9 2 -20 -3 -23
-11z"/>
<path d="M6212 229 c2 -6 8 -10 13 -10 5 0 11 4 13 10 2 6 -4 11 -13 11 -9 0
-15 -5 -13 -11z"/>
<path d="M6305 231 c-6 -11 9 -23 19 -14 9 9 7 23 -3 23 -6 0 -12 -4 -16 -9z"/>
<path d="M6487 261 c-7 -27 17 -60 33 -45 16 16 8 58 -11 62 -10 2 -19 -5 -22
-17z"/>
</g>
</svg>
