<svg width="60px" version="1.1" viewBox="0.0 0.0 1005.4383202099738 836.4461942257218" fill="none" stroke="none" stroke-linecap="square" stroke-miterlimit="10" xmlns:xlink="http://www.w3.org/1999/xlink" xmlns="http://www.w3.org/2000/svg"><clipPath id="p.0"><path d="m0 0l1005.4383 0l0 836.44617l-1005.4383 0l0 -836.44617z" clip-rule="nonzero"/></clipPath><g clip-path="url(#p.0)"><path fill="#343a40" d="m0 0l1005.4383 0l0 836.44617l-1005.4383 0z" fill-rule="evenodd"/><path fill="#000000" fill-opacity="0.0" d="m-30.134031 -315.5765l393.87717 0l0 332.0283l-393.87717 0z" fill-rule="evenodd"/><path fill="#ffffff" d="m593.5066 58.408485q1.5625 7.828125 -3.53125 13.703125q-5.078125 5.859375 -22.296875 15.25q-35.21875 17.21875 -39.921875 25.828125q-3.90625 3.140625 -17.609375 13.3125q-13.6875 10.171883 -34.03125 25.046883q-30.53125 20.34375 -52.84375 38.34375q-22.296875 18.0 -29.34375 27.390625q-2.34375 0 -5.875 2.359375q-3.515625 2.34375 -5.859375 1.5625q-1.5625 0.78125 -7.046875 4.703125q-5.484375 3.90625 -7.828125 7.03125q-2.34375 6.265625 -7.4375 12.140625q-5.078125 5.859375 -12.125 5.078125q-14.875 7.8281097 -58.703125 43.04686q5.484375 60.265625 30.53125 105.65625q22.6875 50.09375 46.171875 73.578125q16.4375 18.0 30.90625 28.171875q14.484375 10.171875 22.3125 10.171875q7.046875 2.3437805 19.5625 10.9531555q12.53125 8.609375 13.3125 14.09375q0.78125 1.5625 0.78125 6.265625q0 11.734375 -3.921875 17.21875q-3.125 5.46875 -5.484375 8.203125q-2.34375 2.75 -7.8125 2.75q-8.609375 0 -21.140625 -6.265625q-12.515625 0.78125 -43.046875 -23.484375q-30.515625 -24.25 -46.953125 -44.609406q-21.125 -30.515625 -36.390625 -55.5625q-15.265625 -25.046875 -23.09375 -54.78125q-3.125 -14.09375 -11.734375 -42.265625q-5.484375 -14.875 -6.265625 -21.140625l0 -14.859375l-9.390625 23.46875q-0.78125 2.359375 -9.78125 25.84375q-9.0 23.46875 -25.4375 82.953125l-12.515625 40.6875q-18.0 56.359406 -23.875 71.21878q-5.875 14.875 -12.140625 14.875q-3.125 0 -8.21875 -3.515625q-5.078125 -3.515625 -7.421875 -5.09375q-6.265625 -3.90625 -8.625 -7.046875q-2.34375 -3.125 -2.34375 -7.8125q0 -5.484375 3.921875 -19.578125q-0.78125 -10.171875 1.5625 -19.56253q2.34375 -9.390625 2.34375 -10.953125q5.484375 0 5.484375 -12.53125q0 -6.25 7.046875 -27.390625l7.046875 -24.265625l9.390625 -22.6875q8.609375 -21.921875 8.609375 -23.484375q0 -10.171875 10.171875 -25.828125q3.125 -9.390625 5.46875 -20.34375q2.359375 -10.953125 2.359375 -18.0q1.5625 -3.921875 8.59375 -18.0q7.046875 -14.09375 10.1875 -28.1875q0.78125 -3.90625 2.734375 -8.59375q1.953125 -4.703125 4.3125 -11.749985l25.828125 -70.4375l11.734375 -26.609375q1.5625 -3.90625 10.5625 -24.25q9.0 -20.359383 12.140625 -20.359383l0 -8.609375q0 -3.125 8.609375 -20.34375l9.390625 -18.796875q6.25 -10.171875 9.765625 -19.953125q3.53125 -9.78125 4.3125 -12.906248q0.78125 -1.578125 3.125 -5.484375q2.359375 -3.90625 5.484375 -7.046875q8.609375 -6.265625 15.65625 -6.265625q10.953125 0 18.78125 15.65625q5.484375 10.953123 5.484375 19.562498q0 7.828125 -7.046875 18.796875q-26.609375 57.125 -53.609375 117.39063q-27.0 60.265625 -27.0 69.65625l26.609375 -19.5625q20.34375 -20.34375 64.953125 -54.0l96.265625 -78.26563q21.921875 -10.96875 51.65625 -34.4375q7.828125 -4.703125 12.515625 -8.609375q4.703125 -3.921875 7.84375 -5.484375q4.6875 -3.90625 18.765625 -13.6875q14.09375 -9.796873 18.015625 -9.015623q8.609375 -3.90625 18.78125 7.843748q10.171875 11.734375 8.609375 21.90625z" fill-rule="nonzero"/><path fill="#000000" fill-opacity="0.0" d="m162.56693 -47.252625l123.36377 0l0 196.25351l-123.36377 0z" fill-rule="evenodd"/><path fill="#ffffff" d="m329.89944 812.7636q-27.390625 -21.140625 -36.0 -33.265625q-8.609375 -12.125 -10.1875 -30.125q-0.78125 -3.921875 -0.78125 -14.09375q0 -21.921875 3.90625 -54.78125q3.921875 -32.875 7.84375 -52.4375q3.125 -3.140625 3.515625 -9.390625q0.390625 -6.265625 -0.390625 -7.828125q0 -2.359375 3.921875 -15.65625q9.390625 -28.96875 13.296875 -48.53125q21.125 -64.171875 41.46875 -102.515625q20.359375 -38.359375 45.40625 -72.015625q33.65625 -34.4375 52.828125 -50.484375q19.171875 -16.046875 42.65625 -27.0q30.53122 -18.0 43.828094 -18.0q2.34375 0 7.046875 1.5625q43.828125 9.390625 65.734375 35.609375q21.921875 26.21875 32.09375 81.015625q7.046875 47.734375 7.046875 72.0q0 39.140625 -14.09375 79.0625q-14.078125 39.90625 -50.875 100.171875q-42.25 82.953125 -99.78122 133.04688q-57.53125 50.09375 -108.390625 50.09375q-27.40625 0 -50.09375 -16.4375zm50.09375 -22.703125q26.609375 -3.125 50.46875 -20.734375q23.875 -17.609375 59.09375 -58.3125q30.53122 -35.21875 43.43747 -53.21875q12.921875 -18.0 23.09375 -43.046875q10.171875 -25.046875 25.046875 -76.703125q8.609375 -32.875 11.34375 -51.265625q2.734375 -18.390625 2.734375 -44.21875l-0.78125 -50.875q-0.78125 -13.296875 -5.484375 -27.765625q-4.6875 -14.484375 -10.953125 -21.53125q-11.734375 -13.3125 -30.515625 -13.3125q-11.75 0 -22.703125 5.484375q-14.8749695 6.265625 -43.828094 36.390625q-28.953125 30.125 -52.046875 61.828125q-23.09375 31.703125 -23.09375 41.09375q0 0.78125 -0.78125 4.703125q-0.78125 3.90625 -3.125 7.03125q-13.3125 14.09375 -29.75 57.140625q-16.421875 43.046875 -28.953125 93.140625q-12.515625 50.078125 -14.078125 83.734375l-1.578125 26.609375q0 7.046875 1.171875 10.96875q1.1875 3.90625 5.09375 9.0q3.921875 5.078125 7.046875 10.5625q3.90625 6.25 12.515625 10.171875q8.609375 3.90625 18.015625 3.90625q5.46875 0 8.609375 -0.78125z" fill-rule="nonzero"/></g></svg>