<?xml version="1.0" standalone="no"?>
<!DOCTYPE svg PUBLIC "-//W3C//DTD SVG 20010904//EN"
 "http://www.w3.org/TR/2001/REC-SVG-20010904/DTD/svg10.dtd">
<svg version="1.0" xmlns="http://www.w3.org/2000/svg"
 width="340.000000pt" height="340.000000pt" viewBox="0 0 340.000000 340.000000"
 preserveAspectRatio="xMidYMid meet">

<g transform="translate(0.000000,340.000000) scale(0.100000,-0.100000)"
fill="#000000" stroke="none">
<path d="M1507 3037 c-7 -4 -30 -7 -52 -6 -22 1 -48 -2 -58 -6 -9 -4 -26 -5
-37 -2 -11 3 -23 1 -26 -5 -3 -5 -16 -8 -27 -7 -12 1 -30 -2 -40 -6 -10 -4
-21 -5 -24 -1 -3 3 -12 1 -19 -5 -8 -6 -21 -9 -29 -5 -8 3 -15 1 -15 -3 0 -9
-72 -27 -97 -24 -7 0 -13 -4 -13 -9 0 -6 -7 -8 -15 -4 -8 3 -15 1 -15 -5 0 -6
-7 -9 -15 -5 -8 3 -15 1 -15 -5 0 -6 -6 -9 -14 -6 -8 3 -16 1 -18 -4 -2 -5
-13 -11 -26 -12 -12 0 -22 -4 -22 -8 0 -7 -50 -23 -62 -21 -5 1 -8 -2 -8 -7 0
-10 -39 -27 -52 -23 -5 1 -8 -3 -8 -9 0 -5 -4 -7 -10 -4 -5 3 -10 2 -10 -2 0
-5 -14 -17 -31 -27 -73 -43 -69 -20 -69 -380 l0 -325 53 -3 c34 -2 8 -6 -75
-12 l-128 -8 0 -129 0 -129 -140 0 c-77 0 -140 -3 -140 -6 0 -3 27 -68 59
-144 l60 -139 -60 -130 c-32 -71 -59 -132 -59 -135 0 -3 94 -6 210 -6 l209 0
4 83 c2 49 4 20 5 -70 2 -124 5 -153 16 -153 8 0 26 -13 39 -30 14 -16 30 -30
36 -30 5 0 18 -11 29 -25 11 -14 24 -25 30 -25 6 0 22 -13 35 -30 14 -16 30
-30 35 -30 6 0 21 -13 35 -29 14 -17 27 -28 30 -25 2 3 16 -9 30 -26 14 -16
30 -30 35 -30 6 0 21 -13 35 -29 14 -17 27 -28 30 -25 2 3 16 -9 30 -26 14
-16 30 -30 35 -30 6 0 21 -13 35 -29 14 -17 27 -28 30 -25 2 3 16 -9 30 -26
14 -16 30 -30 35 -30 6 0 22 -14 35 -30 14 -17 30 -30 36 -30 5 0 18 -11 29
-25 11 -14 24 -25 30 -25 6 0 22 -14 35 -30 14 -17 29 -30 34 -30 4 0 35 -25
68 -55 32 -30 61 -55 64 -55 3 0 20 -14 37 -31 l33 -32 458 389 c252 213 479
406 505 428 48 41 48 41 48 104 l0 62 206 0 c192 0 205 1 200 18 -3 10 -30 71
-60 136 l-53 119 58 135 c33 75 59 139 59 144 0 4 -61 8 -135 8 l-135 0 0 130
0 129 -67 3 -68 3 -3 341 -2 340 -78 47 c-147 89 -368 164 -597 204 -105 18
-495 26 -518 10z m458 -133 c198 -27 383 -82 528 -156 l77 -40 -2 -307 -3
-306 -30 0 -30 0 -3 288 -2 288 -76 35 c-113 52 -264 100 -273 85 -4 -6 -25
-106 -46 -221 l-39 -211 23 -15 c60 -42 91 -98 91 -163 0 -68 -14 -91 -56 -91
-31 0 -35 3 -28 18 4 9 9 40 12 68 3 43 0 55 -23 82 -61 72 -170 61 -209 -23
-20 -41 -20 -72 -2 -107 18 -33 13 -38 -39 -38 l-41 0 2 73 2 72 -65 50 c-36
28 -174 136 -306 240 -351 276 -310 249 -354 235 -21 -7 -76 -30 -123 -52
l-85 -39 0 -287 0 -287 -35 0 -35 0 -3 302 -2 301 30 22 c16 12 64 37 105 56
289 133 661 179 1040 128z m-482 -801 c-112 -2 -294 -2 -405 0 -112 1 -21 2
202 2 223 0 314 -1 203 -2z m-563 -98 c21 -22 21 -25 6 -31 -10 -4 -28 -1 -41
6 -25 13 -55 8 -55 -9 0 -6 23 -20 50 -32 74 -32 89 -71 45 -114 -16 -17 -35
-25 -60 -25 -35 0 -85 35 -85 59 0 18 35 17 57 -2 14 -12 28 -17 42 -12 33 10
25 34 -16 52 -53 21 -73 42 -73 74 0 57 86 80 130 34z m236 2 c51 -44 41 -166
-15 -197 -55 -29 -132 10 -145 72 -22 112 80 193 160 125z m242 1 c-3 -20 -10
-23 -55 -26 -45 -3 -53 -6 -53 -23 0 -15 7 -19 35 -19 28 0 35 -4 35 -19 0
-15 -8 -21 -32 -23 -32 -3 -33 -5 -36 -50 -3 -40 -6 -48 -23 -48 -18 0 -19 8
-19 115 l0 115 76 0 c72 0 75 -1 72 -22z m202 -3 c0 -21 -5 -25 -30 -25 l-30
0 0 -91 c0 -88 -1 -90 -22 -87 -22 3 -23 8 -26 91 l-3 87 -29 0 c-25 0 -30 4
-30 25 0 25 1 25 85 25 84 0 85 0 85 -25z m91 -10 c23 -98 20 -96 38 -30 11
41 22 61 34 63 18 4 18 3 40 -73 l14 -50 13 63 c11 55 15 62 36 62 13 0 24 -1
24 -3 0 -6 -41 -193 -46 -209 -3 -10 -14 -18 -24 -18 -19 0 -23 10 -46 104 -8
35 -16 23 -34 -52 -10 -45 -15 -53 -33 -50 -17 2 -24 17 -38 83 -33 151 -33
147 -8 143 16 -2 25 -12 30 -33z m387 -73 c23 -60 42 -112 42 -115 0 -19 -42
-4 -52 18 -9 21 -18 25 -52 25 -33 0 -43 -4 -51 -22 -11 -25 -61 -40 -53 -16
60 170 82 218 103 218 19 0 28 -16 63 -108z m247 83 c31 -30 32 -64 4 -94 -21
-22 -21 -24 -5 -57 21 -45 20 -54 -3 -54 -13 0 -28 15 -43 43 -15 27 -30 42
-43 42 -16 0 -21 -8 -23 -42 -3 -35 -7 -43 -23 -43 -18 0 -19 8 -19 115 l0
115 65 0 c57 0 69 -3 90 -25z m233 3 c-3 -20 -10 -23 -55 -26 -45 -3 -53 -6
-53 -23 0 -14 7 -19 28 -19 34 0 43 -7 35 -26 -3 -8 -18 -14 -34 -14 -24 0
-29 -4 -29 -25 0 -22 4 -24 58 -27 49 -3 57 -6 57 -23 0 -18 -7 -20 -80 -20
l-80 0 -3 99 c-1 55 0 106 2 113 4 9 28 13 81 13 73 0 76 -1 73 -22z m-1840
-310 c24 -20 42 -74 36 -107 -10 -47 -46 -74 -109 -79 l-55 -4 0 99 c0 55 3
103 8 107 10 11 101 -1 120 -16z m222 2 c0 -17 -7 -20 -45 -20 -38 0 -45 -3
-45 -20 0 -15 7 -20 25 -20 18 0 25 -5 25 -20 0 -15 -7 -20 -25 -20 -20 0 -25
-5 -25 -25 0 -23 3 -25 50 -25 43 0 50 -3 50 -20 0 -18 -7 -20 -70 -20 l-70 0
0 105 0 105 65 0 c58 0 65 -2 65 -20z m105 -42 c11 -31 23 -59 26 -62 3 -3 14
19 25 50 20 60 39 83 54 68 6 -6 -3 -45 -24 -104 -33 -92 -54 -117 -73 -88
-15 24 -70 188 -64 193 16 16 38 -7 56 -57z m293 40 c3 -15 -4 -18 -47 -18
-44 0 -51 -3 -51 -19 0 -14 8 -21 27 -23 17 -2 29 -10 31 -20 3 -14 -3 -18
-27 -18 -26 0 -31 -4 -31 -25 0 -23 3 -25 50 -25 43 0 50 -3 50 -20 0 -18 -7
-20 -70 -20 l-70 0 0 105 0 106 67 -3 c55 -2 68 -6 71 -20z m90 -66 l3 -82 50
0 c43 0 50 -3 47 -17 -3 -15 -16 -19 -71 -21 l-67 -3 0 99 c0 54 3 102 7 106
19 18 28 -7 31 -82z m269 64 c25 -21 28 -31 28 -81 0 -50 -3 -60 -28 -81 -53
-45 -117 -24 -138 45 -30 102 63 181 138 117z m193 15 c34 -9 55 -53 39 -83
-17 -32 -28 -38 -71 -38 -38 0 -38 0 -38 -40 0 -33 -3 -40 -20 -40 -19 0 -20
7 -20 98 0 54 3 102 7 105 8 9 70 7 103 -2z m150 -52 l28 -61 29 59 c43 89 57
79 61 -44 3 -98 2 -103 -18 -103 -17 0 -20 7 -21 53 l-1 52 -21 -47 c-12 -26
-25 -48 -28 -48 -3 0 -15 19 -25 42 l-19 43 -5 -45 c-4 -37 -9 -45 -25 -45
-18 0 -20 8 -23 89 -2 49 -1 95 2 103 12 30 38 11 66 -48z m318 39 c3 -15 -4
-18 -47 -18 -44 0 -51 -3 -51 -19 0 -14 8 -21 27 -23 17 -2 29 -10 31 -20 3
-14 -3 -18 -27 -18 -26 0 -31 -4 -31 -25 0 -23 3 -25 50 -25 43 0 50 -3 50
-20 0 -18 -7 -20 -70 -20 l-70 0 0 105 0 106 67 -3 c55 -2 68 -6 71 -20z m127
-42 l40 -58 5 58 c4 44 9 59 20 59 12 0 16 -19 18 -103 2 -95 1 -103 -15 -100
-10 2 -36 30 -58 62 l-40 58 -3 -61 c-3 -53 -6 -61 -22 -61 -19 0 -20 7 -20
98 0 135 10 142 75 48z m280 39 c0 -15 -7 -20 -25 -20 -24 0 -25 -2 -28 -82
-3 -75 -5 -83 -22 -83 -18 0 -20 7 -20 85 l0 85 -25 -4 c-27 -5 -40 7 -31 30
4 12 21 14 78 12 65 -3 73 -5 73 -23z m-1739 -290 c-34 -27 -106 -48 -139 -40
-21 6 -22 4 -21 -62 l2 -68 392 -333 c280 -237 395 -330 400 -320 4 7 26 113
49 236 l42 223 -35 40 c-20 21 -37 49 -38 62 -1 12 -2 30 -2 41 -1 15 -58 42
-269 130 l-268 111 85 3 84 3 195 -81 194 -81 38 25 c21 14 44 26 51 26 17 0
29 24 38 73 6 34 9 37 42 37 29 0 34 -3 30 -17 -20 -75 -19 -80 28 -126 25
-24 46 -51 46 -60 0 -15 8 -16 53 -12 68 7 438 35 460 35 15 0 17 12 17 90 l0
90 35 0 35 0 0 -112 0 -113 -437 -370 c-240 -203 -441 -371 -447 -373 -7 -1
-209 165 -451 370 l-440 373 -3 113 -3 112 133 0 133 -1 -29 -24z"/>
<path d="M1560 2854 c-84 -6 -206 -23 -291 -41 l-77 -15 217 -171 c119 -94
260 -206 313 -249 53 -43 101 -78 106 -78 5 0 15 7 23 16 20 24 85 54 118 54
28 0 30 3 40 53 32 163 72 389 69 393 -21 20 -382 47 -518 38z"/>
<path d="M1060 1970 c-12 -12 -20 -33 -20 -55 0 -22 8 -43 20 -55 24 -24 29
-24 58 -4 42 29 22 134 -26 134 -7 0 -21 -9 -32 -20z"/>
<path d="M2008 1944 c-3 -11 -9 -27 -13 -36 -6 -15 -2 -18 20 -18 23 0 25 3
19 23 -12 42 -21 51 -26 31z"/>
<path d="M2210 1954 c0 -23 3 -25 43 -22 35 2 43 7 45 26 3 20 -1 22 -42 22
-43 0 -46 -2 -46 -26z"/>
<path d="M637 1673 c-4 -3 -7 -33 -7 -65 0 -54 2 -58 23 -58 54 0 79 84 35
114 -24 17 -41 20 -51 9z"/>
<path d="M1611 1666 c-18 -21 -10 -97 12 -110 22 -14 49 2 62 38 18 53 -42
111 -74 72z"/>
<path d="M1820 1655 c0 -22 4 -25 35 -25 28 0 35 4 35 19 0 20 -18 31 -51 31
-14 0 -19 -7 -19 -25z"/>
<path d="M1768 1230 c-25 -26 -29 -36 -24 -63 7 -36 47 -77 77 -77 28 0 75 26
83 45 13 35 6 76 -19 100 -34 35 -78 33 -117 -5z"/>
<path d="M2182 1161 l-204 -16 -13 -31 c-16 -40 -58 -72 -109 -85 l-41 -10
-39 -210 c-21 -115 -37 -211 -35 -213 3 -3 638 529 679 570 17 17 39 17 -238
-5z"/>
</g>
</svg>
