<?xml version="1.0" standalone="no"?>
<!DOCTYPE svg PUBLIC "-//W3C//DTD SVG 20010904//EN"
 "http://www.w3.org/TR/2001/REC-SVG-20010904/DTD/svg10.dtd">
<svg version="1.0" xmlns="http://www.w3.org/2000/svg"
 width="340.000000pt" height="340.000000pt" viewBox="0 0 340.000000 340.000000"
 preserveAspectRatio="xMidYMid meet">

<g transform="translate(0.000000,340.000000) scale(0.100000,-0.100000)"
fill="#000000" stroke="none">
<path d="M1433 3039 c-253 -29 -507 -114 -685 -227 l-58 -37 -2 -340 -3 -340
-68 -3 -67 -3 0 -129 0 -130 -140 0 c-77 0 -140 -2 -140 -4 0 -2 27 -67 60
-144 l59 -141 -59 -131 c-33 -72 -60 -133 -60 -136 0 -2 94 -4 210 -4 l210 0
0 -63 0 -63 508 -430 509 -431 504 427 504 427 5 64 5 64 207 3 207 2 -60 131
c-32 71 -59 136 -59 143 0 7 27 74 59 149 l60 137 -140 0 -139 0 0 130 0 129
-67 3 -68 3 -3 341 -2 342 -39 25 c-162 107 -432 198 -689 232 -122 16 -435
18 -559 4z m539 -134 c207 -27 413 -89 559 -167 l59 -31 -2 -306 -3 -306 -27
-3 -28 -3 0 291 0 291 -76 35 c-92 43 -259 98 -276 91 -11 -4 -89 -381 -88
-425 0 -6 19 -29 42 -50 48 -43 68 -85 68 -141 0 -68 -14 -91 -55 -91 -40 0
-40 -1 -20 36 20 38 19 72 -3 113 -20 37 -73 71 -110 71 -36 0 -89 -26 -107
-53 -24 -38 -30 -91 -12 -126 8 -16 12 -32 9 -35 -9 -10 -92 -7 -92 3 0 5 3
11 8 13 4 2 6 31 4 65 l-4 61 -61 48 c-34 27 -187 147 -341 268 l-279 219 -43
-11 c-23 -6 -81 -29 -128 -51 l-86 -40 0 -291 0 -291 -27 3 -28 3 -3 306 -2
307 88 46 c141 72 296 119 497 150 123 19 426 20 567 1z m-1034 -896 c35 -32
6 -54 -37 -27 -20 12 -51 5 -51 -11 0 -6 23 -20 50 -32 74 -32 89 -71 45 -114
-16 -17 -35 -25 -60 -25 -35 0 -85 35 -85 59 0 18 35 17 57 -2 14 -12 28 -17
42 -12 33 10 25 34 -16 52 -53 21 -73 42 -73 74 0 55 84 80 128 38z m243 -8
c25 -26 29 -37 29 -86 0 -49 -4 -60 -29 -86 -22 -21 -39 -29 -66 -29 -27 0
-44 8 -66 29 -25 26 -29 37 -29 86 0 49 4 60 29 86 22 21 39 29 66 29 27 0 44
-8 66 -29z m239 4 c0 -24 -3 -25 -56 -25 -47 0 -55 -3 -52 -17 2 -12 14 -19
36 -21 23 -2 32 -8 32 -22 0 -14 -9 -20 -32 -22 -32 -3 -33 -5 -36 -50 -3 -40
-6 -48 -23 -48 -18 0 -19 8 -19 115 l0 115 75 0 c73 0 75 -1 75 -25z m205 0
c0 -15 -8 -21 -32 -23 l-33 -3 0 -90 c0 -82 -1 -89 -20 -89 -19 0 -20 7 -20
90 l0 90 -29 0 c-33 0 -46 13 -37 36 5 12 22 14 88 12 75 -3 83 -5 83 -23z
m95 -37 l13 -63 16 60 c13 48 20 60 36 60 16 0 23 -12 36 -60 18 -66 15 -68
38 30 5 20 14 31 29 33 26 4 27 11 -2 -118 -19 -91 -25 -105 -44 -108 -21 -3
-23 1 -48 103 l-7 30 -8 -25 c-4 -14 -13 -44 -19 -68 -9 -36 -15 -43 -32 -40
-19 3 -25 17 -44 108 -29 130 -29 120 0 120 21 0 25 -7 36 -62z m379 -44 c23
-58 41 -110 41 -115 0 -20 -41 -8 -52 16 -9 21 -18 25 -54 25 -36 0 -43 -3
-48 -25 -5 -18 -13 -25 -31 -25 -14 0 -25 2 -25 4 0 7 71 190 81 209 6 9 18
17 28 17 15 0 28 -24 60 -106z m245 85 c32 -25 35 -70 6 -99 l-20 -20 20 -40
c25 -49 25 -50 -5 -50 -20 0 -30 9 -47 45 -29 60 -56 61 -60 3 -2 -36 -7 -44
-25 -46 -23 -3 -23 -2 -23 112 l0 116 64 0 c49 0 69 -5 90 -21z m236 -4 c0
-24 -3 -25 -55 -25 -48 0 -55 -2 -55 -20 0 -16 7 -20 35 -20 28 0 35 -4 35
-20 0 -16 -7 -20 -35 -20 -30 0 -35 -3 -35 -25 0 -22 4 -24 58 -27 49 -3 57
-6 57 -23 0 -18 -8 -20 -77 -23 l-78 -3 0 116 0 115 75 0 c73 0 75 -1 75 -25z
m-1832 -319 c22 -21 27 -35 26 -72 -1 -66 -33 -96 -105 -98 l-54 -1 -3 104 -3
104 56 -5 c44 -4 62 -11 83 -32z m220 12 c3 -15 -4 -18 -47 -18 -44 0 -51 -3
-51 -19 0 -14 8 -21 27 -23 17 -2 29 -10 31 -20 3 -14 -3 -18 -27 -18 -26 0
-31 -4 -31 -25 0 -23 3 -25 50 -25 43 0 50 -3 50 -20 0 -18 -7 -20 -70 -20
l-70 0 0 105 0 106 67 -3 c55 -2 68 -6 71 -20z m97 -40 c11 -31 23 -59 27 -63
3 -3 16 23 28 59 17 51 26 66 41 66 25 0 25 -2 -15 -111 -45 -124 -59 -125
-103 -9 -37 99 -40 123 -15 118 11 -2 24 -24 37 -60z m293 40 c3 -15 -4 -18
-47 -18 -44 0 -51 -3 -51 -20 0 -16 7 -20 30 -20 23 0 30 -4 30 -20 0 -16 -7
-20 -30 -20 -25 0 -30 -4 -30 -25 0 -23 3 -25 50 -25 44 0 50 -3 50 -20 0 -19
-5 -21 -67 -18 l-68 3 -3 103 -3 103 68 -3 c55 -2 68 -6 71 -20z m94 -60 l3
-82 45 0 c38 -1 45 -4 45 -21 0 -18 -7 -20 -65 -20 l-65 0 -3 103 c-3 96 -2
102 17 102 18 0 20 -8 23 -82z m272 51 c38 -45 37 -110 -3 -150 -33 -33 -58
-36 -101 -14 -57 29 -61 142 -7 180 36 25 82 19 111 -16z m211 6 c28 -27 30
-37 14 -68 -16 -30 -28 -37 -71 -37 -35 0 -37 -2 -40 -37 -2 -26 -8 -38 -18
-38 -12 0 -16 19 -18 103 l-3 102 56 0 c46 0 60 -4 80 -25z m124 -32 c14 -29
28 -53 31 -53 3 0 17 24 31 53 14 29 32 53 42 55 16 3 17 -5 15 -100 -2 -84
-6 -103 -18 -103 -11 0 -16 14 -20 50 l-5 50 -19 -47 c-10 -27 -22 -48 -26
-48 -5 0 -16 20 -27 45 l-18 45 -5 -47 c-4 -35 -10 -49 -22 -51 -16 -3 -18 7
-18 103 0 96 2 106 18 103 9 -2 28 -26 41 -55z m319 35 c3 -15 -4 -18 -47 -18
-44 0 -51 -3 -51 -20 0 -16 7 -20 30 -20 23 0 30 -4 30 -20 0 -16 -7 -20 -30
-20 -25 0 -30 -4 -30 -25 0 -23 3 -25 50 -25 44 0 50 -3 50 -20 0 -19 -5 -21
-67 -18 l-68 3 -3 103 -3 103 68 -3 c55 -2 68 -6 71 -20z m131 -40 l41 -63 0
63 c0 56 2 62 20 62 20 0 21 -5 18 -102 -4 -124 -14 -131 -73 -44 l-40 58 -5
-58 c-4 -44 -9 -59 -20 -59 -12 0 -16 19 -18 103 -2 95 -1 102 16 102 13 0 34
-22 61 -62z m281 43 c0 -14 -8 -21 -27 -23 -28 -3 -28 -4 -31 -86 -2 -72 -5
-83 -20 -80 -14 3 -17 17 -20 86 -3 79 -4 82 -26 82 -23 0 -41 22 -29 34 4 3
39 6 80 6 65 0 73 -2 73 -19z m-1742 -291 c-36 -28 -73 -40 -124 -40 l-44 0 1
-67 0 -68 399 -337 c220 -185 401 -334 404 -330 2 4 23 112 47 239 l43 233
-26 27 c-35 38 -48 66 -48 105 l0 33 -266 110 -266 110 79 3 c78 3 78 3 278
-81 l200 -84 26 24 c14 13 39 27 55 32 26 6 30 14 38 59 9 51 10 52 43 52 28
0 33 -3 29 -17 -20 -75 -19 -80 28 -126 25 -24 46 -51 46 -60 0 -9 3 -17 8
-17 4 0 120 9 257 20 138 11 256 20 263 20 9 0 12 25 12 90 l0 90 30 0 30 0 0
-112 -1 -113 -425 -360 c-234 -198 -433 -366 -444 -373 -16 -12 -60 22 -459
360 l-441 373 0 112 0 113 126 0 127 0 -25 -20z"/>
<path d="M1525 2854 c-77 -8 -181 -25 -248 -40 l-68 -16 167 -131 c92 -73 237
-187 322 -255 122 -96 157 -120 164 -108 13 24 74 56 119 64 l43 7 41 220 c23
121 41 221 39 223 -15 22 -457 49 -579 36z"/>
<path d="M1086 1974 c-24 -23 -30 -61 -16 -94 33 -79 120 -14 89 67 -17 44
-45 55 -73 27z"/>
<path d="M2022 1921 c-10 -29 -10 -31 14 -31 22 0 24 3 19 23 -12 37 -22 40
-33 8z"/>
<path d="M2238 1954 c4 -22 9 -25 41 -22 29 2 37 8 39 26 3 20 -1 22 -41 22
-42 0 -44 -1 -39 -26z"/>
<path d="M650 1620 c0 -69 14 -83 55 -56 48 32 26 116 -31 116 -23 0 -24 -3
-24 -60z"/>
<path d="M1632 1668 c-30 -30 -5 -118 33 -118 18 0 45 39 45 65 0 48 -49 82
-78 53z"/>
<path d="M1840 1656 c0 -23 4 -26 36 -26 31 0 35 3 32 23 -2 17 -11 23 -35 25
-30 3 -33 1 -33 -22z"/>
<path d="M1802 1253 c-17 -6 -42 -57 -42 -83 0 -33 53 -80 89 -80 74 0 113 90
61 145 -23 24 -72 33 -108 18z"/>
<path d="M2220 1164 c-80 -7 -161 -13 -182 -13 -31 -1 -39 -6 -55 -38 -24 -47
-61 -74 -110 -82 l-38 -6 -41 -220 c-23 -121 -41 -221 -40 -222 1 -1 101 82
222 185 121 103 280 238 353 300 l133 112 -49 -1 c-26 -1 -113 -7 -193 -15z"/>
</g>
</svg>
