<?xml version="1.0" standalone="no"?>
<!DOCTYPE svg PUBLIC "-//W3C//DTD SVG 20010904//EN"
 "http://www.w3.org/TR/2001/REC-SVG-20010904/DTD/svg10.dtd">
<svg version="1.0" xmlns="http://www.w3.org/2000/svg"
 width="1433.000000pt" height="598.000000pt" viewBox="0 0 1433.000000 598.000000"
 preserveAspectRatio="xMidYMid meet">

<g transform="translate(0.000000,598.000000) scale(0.100000,-0.100000)"
fill="#000000" stroke="none">
<path d="M1081 5918 c-5 -13 -22 -52 -38 -88 -47 -103 -124 -339 -121 -368 7
-57 27 -30 63 85 l38 118 12 -48 c13 -47 68 -143 86 -149 6 -2 3 -40 -7 -100
-16 -90 -16 -98 -1 -122 10 -14 29 -33 43 -42 57 -38 147 24 222 152 53 93 66
135 59 204 -8 96 -53 151 -110 136 -44 -11 -111 -70 -146 -129 -39 -66 -49
-64 -87 18 -29 62 -31 101 -5 115 11 5 25 16 33 23 20 20 174 134 197 147 25
13 28 50 5 50 -19 0 -84 -45 -187 -129 -43 -35 -80 -61 -83 -59 -2 3 13 43 35
90 28 61 36 89 29 101 -13 23 -27 21 -37 -5z m300 -295 c15 -38 5 -137 -21
-206 -35 -92 -124 -187 -177 -187 -29 0 -46 33 -38 73 21 112 27 127 47 127
18 0 20 5 14 31 -7 38 17 88 72 147 48 52 87 57 103 15z"/>
<path d="M3963 5565 c0 -33 2 -48 4 -32 4 22 9 27 33 27 24 0 29 -5 33 -27 2
-16 4 -1 4 32 0 33 -2 48 -4 33 -4 -23 -9 -28 -33 -28 -24 0 -29 5 -33 28 -2
15 -4 0 -4 -33z"/>
<path d="M5258 5613 c6 -2 18 -2 25 0 6 3 1 5 -13 5 -14 0 -19 -2 -12 -5z"/>
<path d="M7448 5613 c7 -3 16 -2 19 1 4 3 -2 6 -13 5 -11 0 -14 -3 -6 -6z"/>
<path d="M4962 5578 c15 -13 24 -15 29 -7 3 6 12 14 18 18 6 4 -7 7 -29 7 -39
0 -39 0 -18 -18z"/>
<path d="M7696 5591 c-4 -5 -2 -12 3 -15 5 -4 12 -2 15 3 4 5 2 12 -3 15 -5 4
-12 2 -15 -3z"/>
<path d="M4077 5584 c-4 -4 -7 -12 -7 -18 0 -6 4 -5 9 2 14 23 46 10 46 -18 0
-28 -32 -41 -47 -18 -8 10 -9 10 -5 -2 5 -21 47 -19 61 3 8 12 8 22 0 35 -12
18 -45 28 -57 16z"/>
<path d="M4166 5577 c3 -10 9 -15 12 -12 3 3 0 11 -7 18 -10 9 -11 8 -5 -6z"/>
<path d="M4198 5583 c6 -3 13 -21 13 -41 l2 -37 6 35 c9 50 38 53 44 6 l4 -36
-1 37 c-1 37 -2 38 -41 39 -22 1 -34 -1 -27 -3z"/>
<path d="M4333 5584 c27 -8 20 -27 -8 -22 -14 3 -25 1 -25 -3 0 -5 14 -9 31
-9 24 0 30 4 27 17 -2 10 -12 19 -23 20 -16 1 -16 1 -2 -3z"/>
<path d="M7118 5583 c7 -3 16 -2 19 1 4 3 -2 6 -13 5 -11 0 -14 -3 -6 -6z"/>
<path d="M5358 5553 c6 -2 18 -2 25 0 6 3 1 5 -13 5 -14 0 -19 -2 -12 -5z"/>
<path d="M5568 5553 c7 -3 16 -2 19 1 4 3 -2 6 -13 5 -11 0 -14 -3 -6 -6z"/>
<path d="M6213 5553 c9 -2 25 -2 35 0 9 3 1 5 -18 5 -19 0 -27 -2 -17 -5z"/>
<path d="M4300 5529 c0 -11 25 -22 39 -17 6 1 -1 8 -14 15 -14 6 -25 7 -25 2z"/>
<path d="M5558 5513 c7 -3 16 -2 19 1 4 3 -2 6 -13 5 -11 0 -14 -3 -6 -6z"/>
<path d="M6058 5513 c6 -2 18 -2 25 0 6 3 1 5 -13 5 -14 0 -19 -2 -12 -5z"/>
<path d="M6958 5513 c7 -3 16 -2 19 1 4 3 -2 6 -13 5 -11 0 -14 -3 -6 -6z"/>
<path d="M7448 5513 c6 -2 18 -2 25 0 6 3 1 5 -13 5 -14 0 -19 -2 -12 -5z"/>
<path d="M7538 5513 c7 -3 16 -2 19 1 4 3 -2 6 -13 5 -11 0 -14 -3 -6 -6z"/>
<path d="M0 2565 l0 -2565 2843 0 c2198 0 2846 3 2855 12 7 7 12 22 12 34 0
13 5 26 10 29 6 3 8 16 5 28 -4 15 3 36 19 60 15 21 26 49 26 63 0 14 4 33 9
42 11 21 20 238 13 310 -5 60 -18 69 -20 16 -2 -59 -15 -61 -27 -5 -4 21 -3
31 3 28 12 -8 10 133 -3 153 -5 8 -10 33 -11 55 -3 72 -39 207 -75 275 -10 19
-25 51 -34 70 -64 133 -98 193 -134 229 -42 43 -57 51 -47 26 3 -8 2 -15 -2
-15 -12 0 -27 14 -27 25 0 16 -41 65 -54 65 -6 0 -11 4 -11 10 0 5 -11 12 -25
16 -13 3 -29 12 -36 20 -6 8 -19 14 -29 14 -9 0 -25 9 -35 20 -10 11 -23 20
-30 20 -6 0 -23 12 -36 28 -14 15 -38 37 -53 49 -28 23 -27 46 2 42 28 -5 104
41 152 90 25 26 54 53 65 61 11 8 32 31 46 50 45 60 120 130 139 130 11 0 20
10 24 30 3 18 12 30 21 30 8 0 15 5 15 10 0 16 -14 12 -40 -12 -14 -13 -26
-22 -27 -20 -9 7 -27 -2 -67 -37 -25 -22 -62 -45 -83 -51 -21 -7 -42 -16 -48
-21 -16 -15 -22 -10 -22 16 -1 20 3 24 17 20 13 -4 20 0 24 13 4 11 16 28 27
38 20 18 21 18 34 1 12 -17 15 -17 39 10 17 18 22 29 14 32 -7 2 -14 -1 -16
-7 -2 -7 -10 -12 -18 -12 -21 0 9 44 40 58 13 6 27 21 31 32 6 18 12 21 39 17
17 -3 25 -3 19 0 -20 7 -16 23 13 49 28 27 44 30 45 12 0 -7 5 -3 11 10 6 12
15 22 20 22 4 0 8 8 8 18 -1 15 -3 14 -19 -5 -10 -12 -34 -25 -54 -28 -20 -4
-48 -19 -63 -34 -16 -15 -29 -21 -31 -14 -3 8 -18 6 -54 -6 -27 -10 -52 -21
-56 -24 -3 -4 -16 -7 -29 -7 -12 0 -35 -7 -50 -15 -16 -8 -40 -15 -54 -15 -14
0 -41 -4 -60 -10 -19 -5 -88 -12 -154 -15 -113 -4 -164 -9 -245 -21 -30 -5
-33 -3 -28 15 4 15 1 18 -12 13 -9 -3 -18 -9 -21 -12 -3 -4 -21 -10 -40 -13
l-35 -7 25 20 c14 11 33 20 43 20 10 0 17 8 17 20 0 11 5 20 10 20 6 0 10 -7
10 -16 0 -13 11 -14 68 -10 37 2 78 9 92 14 25 9 25 9 -10 18 -38 9 -37 9 -64
-2 -15 -6 -18 -4 -13 9 3 8 1 18 -6 20 -7 3 4 5 23 5 19 0 69 5 110 11 41 7
94 14 118 17 23 3 42 9 42 13 0 8 -81 7 -134 -1 -10 -2 -21 2 -23 8 -5 15 94
47 123 40 12 -3 26 -2 29 4 3 5 -12 12 -35 16 l-40 7 25 24 c18 19 32 24 52
20 15 -3 37 0 47 5 19 10 19 11 1 24 -27 20 -3 42 55 50 65 9 81 20 56 39 -19
15 -19 15 1 15 11 0 26 6 33 14 6 8 24 16 38 18 19 2 26 8 24 21 -2 10 3 17
12 17 8 0 18 9 21 20 3 11 11 20 16 20 5 0 26 8 47 17 20 9 51 18 67 19 57 5
100 12 125 22 20 8 10 10 -47 9 -40 0 -76 2 -80 6 -11 11 19 57 37 57 19 0 46
27 37 36 -3 3 -19 -2 -36 -10 -16 -9 -37 -16 -45 -16 -8 0 -23 -11 -34 -25
-11 -14 -26 -25 -34 -25 -8 0 -23 -9 -33 -20 -22 -25 -32 -25 -38 -2 -4 16 -4
16 -10 0 -4 -10 -9 -25 -12 -33 -5 -18 -86 -77 -94 -69 -3 3 4 13 15 23 12 9
25 28 29 42 7 23 5 22 -27 -8 -37 -36 -58 -42 -58 -17 0 14 -3 14 -15 4 -14
-12 -14 -15 0 -30 8 -9 15 -21 15 -26 0 -5 -4 -4 -8 3 -5 8 -21 7 -60 -7 -29
-10 -56 -19 -60 -20 -16 -4 -30 -16 -41 -37 -6 -13 -21 -23 -32 -23 -11 0 -29
-9 -41 -19 -11 -11 -27 -17 -34 -14 -8 3 -24 -3 -36 -13 -20 -19 -20 -19 -17
1 2 11 14 25 27 31 12 6 19 13 16 17 -7 7 -52 -11 -75 -30 -24 -20 -41 -16
-34 7 5 15 2 20 -10 20 -11 0 -15 -5 -11 -15 7 -19 -43 -78 -60 -71 -7 3 -20
-4 -29 -14 -10 -11 -22 -17 -27 -14 -6 4 2 17 18 30 15 14 30 20 33 15 3 -5
14 2 24 15 22 29 17 30 -33 4 -22 -11 -48 -21 -59 -23 -11 -2 -24 -6 -27 -10
-4 -4 -16 -7 -27 -7 -10 0 -33 -6 -50 -14 -18 -8 -51 -20 -74 -26 -23 -6 -45
-15 -48 -20 -7 -11 -65 -14 -65 -4 0 11 45 43 61 44 15 0 118 44 208 88 22 11
37 27 42 44 8 29 3 33 -20 19 -8 -5 -10 -14 -5 -22 6 -12 5 -12 -9 -1 -9 8
-33 13 -54 12 -21 -1 -42 -2 -47 -1 -17 2 29 37 64 49 19 7 46 23 60 36 16 15
54 30 103 41 43 10 80 22 83 27 3 4 -17 8 -45 8 -51 0 -77 15 -44 26 10 3 27
10 38 14 11 5 27 11 35 13 8 3 -4 6 -27 6 -23 1 -45 -4 -48 -9 -4 -6 -10 -8
-15 -5 -11 7 -40 -5 -40 -16 0 -10 -30 -40 -104 -103 -79 -67 -123 -96 -146
-96 -11 0 -26 -12 -35 -30 -9 -18 -21 -27 -29 -24 -8 3 -17 1 -21 -5 -12 -20
-25 -11 -25 15 0 24 -3 25 -27 19 -16 -3 -35 -12 -43 -19 -8 -8 -22 -16 -30
-18 -10 -4 -6 -8 13 -13 49 -13 25 -30 -38 -26 -38 2 -60 -1 -65 -9 -9 -14
-140 -22 -140 -9 0 5 -14 9 -31 9 -17 0 -28 4 -24 10 3 6 -1 10 -9 10 -9 0
-15 -3 -14 -7 0 -5 -2 -16 -7 -26 -5 -12 -1 -25 14 -41 11 -12 21 -28 21 -34
0 -7 18 -31 40 -53 46 -47 49 -59 18 -59 -39 0 -68 12 -68 26 0 8 -7 14 -15
14 -8 0 -15 5 -15 10 0 6 -7 10 -15 10 -27 0 -16 -19 39 -62 55 -43 66 -62 44
-72 -9 -4 -8 -5 2 -5 31 2 40 -1 40 -15 0 -8 12 -17 26 -20 22 -6 24 -9 13
-22 -11 -14 -10 -18 6 -30 10 -8 24 -14 31 -14 11 0 74 -56 74 -66 0 -9 -49
-4 -55 6 -3 5 -15 10 -26 10 -20 0 -29 4 -94 39 -22 12 -48 25 -57 28 -10 3
-18 9 -18 14 0 5 -7 9 -16 9 -23 0 -92 60 -152 133 -30 36 -65 70 -78 76 -13
6 -24 16 -24 24 0 7 -20 34 -45 61 -25 27 -45 44 -45 38 0 -16 43 -84 64 -101
9 -7 16 -17 16 -21 0 -5 38 -46 85 -92 47 -47 85 -89 85 -94 0 -5 10 -14 23
-19 26 -12 28 -29 4 -33 -9 -2 -27 8 -40 22 -13 14 -33 29 -44 33 -21 8 -145
117 -252 220 -30 29 -56 53 -59 53 -9 0 -31 35 -32 50 0 8 -14 28 -30 44 -17
16 -30 34 -30 39 0 6 -29 56 -65 112 -36 56 -65 107 -65 112 0 12 -46 63 -57
63 -4 0 -9 -12 -9 -26 -2 -18 5 -28 21 -34 12 -5 25 -17 29 -27 10 -25 -42
-70 -91 -78 -67 -11 -75 -20 -53 -55 8 -12 15 -11 51 8 38 21 43 21 59 7 16
-14 18 -14 24 0 4 11 15 15 33 13 26 -3 27 -5 28 -73 1 -70 -10 -105 -44 -132
-8 -7 -11 -16 -8 -20 4 -3 20 6 35 20 16 15 35 27 43 27 8 0 20 5 27 12 16 16
41 -17 34 -44 -3 -13 5 -22 32 -33 31 -13 35 -18 27 -34 -12 -21 -39 -35 -59
-32 -8 1 -23 -6 -34 -16 -19 -17 -20 -17 -34 1 -12 18 -15 18 -38 2 -14 -9
-32 -16 -41 -16 -11 0 -14 -6 -9 -25 5 -19 0 -30 -23 -49 -25 -23 -26 -25 -8
-25 11 0 29 6 40 15 27 20 76 31 173 39 54 4 82 2 82 -5 0 -5 6 -10 13 -10 7
0 18 -9 25 -20 10 -17 9 -22 -12 -35 -14 -9 -46 -16 -75 -17 -29 0 -64 -4 -79
-8 l-27 -8 25 -3 c14 -2 66 -4 115 -5 50 -1 100 -4 113 -5 29 -4 29 -32 0 -47
-25 -13 -127 -43 -143 -42 -36 2 -100 8 -161 15 -67 7 -72 6 -87 -16 -20 -28
-17 -32 16 -20 18 7 28 7 33 0 3 -6 11 -6 17 -1 14 10 118 9 135 -2 7 -4 12
-11 12 -15 0 -11 -77 -32 -110 -31 -80 4 -172 -22 -200 -55 -11 -13 -9 -15 11
-15 16 0 20 -3 12 -11 -8 -8 -17 -7 -33 3 -19 12 -24 11 -37 -10 -9 -12 -21
-22 -28 -22 -7 0 -18 -6 -24 -14 -6 -7 -29 -16 -50 -20 -21 -3 -44 -12 -50
-20 -14 -16 -153 -31 -178 -18 -23 11 -115 3 -107 -9 3 -5 21 -7 41 -3 33 6
34 6 22 -14 -7 -11 -28 -23 -46 -27 -51 -9 -48 -24 7 -31 27 -4 50 -11 50 -16
0 -5 6 -6 13 -1 14 9 127 11 121 2 -2 -4 -42 -10 -89 -14 -64 -5 -85 -10 -85
-21 0 -8 10 -18 22 -23 l23 -8 -24 -8 c-22 -7 -23 -10 -16 -63 4 -32 12 -66
17 -76 13 -24 17 -159 6 -201 -4 -16 -9 -55 -11 -85 -3 -30 -10 -56 -16 -58
-6 -2 -11 -19 -11 -38 0 -19 -4 -34 -10 -34 -5 0 -10 -16 -10 -36 0 -24 -4
-34 -12 -32 -17 6 -23 78 -8 78 7 0 10 13 9 32 -2 18 3 59 10 91 8 37 9 69 4
90 -11 38 -10 131 2 171 4 15 4 31 -1 35 -13 9 -31 40 -50 83 -14 33 -18 36
-41 27 -13 -5 -29 -6 -34 -3 -6 3 -55 8 -111 10 -103 4 -138 17 -138 51 0 14
65 19 74 5 2 -4 19 -9 37 -10 28 -2 30 0 19 13 -7 8 -25 14 -40 13 -16 -1 -35
4 -44 11 -8 7 -24 10 -36 6 -16 -5 -20 -2 -20 15 0 15 -5 20 -17 18 -10 -1
-19 2 -20 7 -3 11 17 11 140 -1 55 -5 77 -3 77 5 0 6 -3 11 -7 12 -63 5 -124
8 -150 9 -18 0 -33 5 -33 11 0 7 -14 8 -40 4 -36 -6 -40 -5 -40 15 0 17 -4 20
-20 15 -15 -5 -20 -2 -20 13 0 11 6 23 13 25 6 3 2 6 -10 6 -12 1 -37 14 -56
31 -19 16 -46 34 -61 40 -21 8 -26 15 -21 29 4 13 0 23 -12 30 -16 9 -16 12
-3 21 20 13 60 13 60 -1 0 -7 9 -9 22 -6 11 3 33 0 48 -8 15 -8 59 -16 96 -17
41 -2 73 -8 79 -16 7 -8 21 -10 43 -6 18 4 30 9 27 13 -13 12 -112 33 -177 36
-37 2 -76 9 -87 14 -11 6 -34 11 -51 11 -17 0 -47 7 -67 15 -19 8 -44 15 -55
15 -16 0 -69 30 -88 50 -7 8 -63 44 -80 52 -8 4 10 5 40 1 30 -3 67 -12 83
-20 15 -7 27 -9 27 -4 0 9 -30 22 -100 41 -25 7 -61 19 -82 27 -20 8 -41 13
-46 9 -5 -3 -12 1 -16 9 -3 8 -14 15 -25 15 -10 0 -22 7 -25 16 -3 8 -26 24
-51 35 -25 11 -45 24 -45 29 0 6 -11 10 -25 10 -14 0 -47 11 -74 25 -26 14
-79 34 -116 45 -38 11 -73 24 -79 30 -5 5 -19 10 -29 10 -12 0 -17 5 -14 14 9
22 -60 47 -120 43 -29 -2 -50 0 -47 4 2 4 -1 9 -6 11 -6 2 -12 13 -12 24 -2
18 -5 20 -20 11 -16 -10 -16 -13 -1 -29 13 -15 14 -18 2 -18 -19 0 -82 64 -73
73 4 3 -5 11 -20 16 -14 6 -26 15 -26 21 0 18 31 11 62 -15 36 -31 71 -36 45
-7 -23 25 -21 32 6 33 17 0 15 3 -11 12 -19 7 -33 17 -33 22 2 14 50 6 85 -14
16 -9 40 -22 55 -30 14 -8 39 -25 54 -38 16 -12 35 -23 42 -23 8 0 22 -8 32
-19 10 -10 29 -22 41 -26 22 -6 23 -5 13 14 -7 12 -15 21 -19 21 -5 0 -23 12
-41 28 -19 15 -36 26 -40 26 -3 -1 -17 7 -30 17 -13 11 -29 19 -35 19 -11 0
-86 75 -131 130 -19 23 -16 22 40 -9 33 -19 75 -42 93 -53 18 -10 39 -18 47
-18 8 0 15 -4 15 -10 0 -5 9 -10 20 -10 11 0 20 5 20 11 0 5 -4 8 -9 5 -13 -9
-103 75 -97 90 3 8 -4 18 -14 24 -11 6 -20 18 -20 26 0 10 -6 14 -15 10 -18
-6 -45 2 -45 15 0 14 43 10 62 -5 10 -7 15 -15 12 -18 -9 -9 66 -19 89 -12 21
6 22 6 4 -14 -22 -24 -12 -33 44 -36 35 -2 40 1 46 23 l6 26 8 -28 c4 -16 5
-35 2 -43 -3 -8 0 -21 7 -29 11 -14 15 -14 29 -1 17 15 37 16 58 3 6 -4 19 -4
30 -1 10 3 4 -4 -14 -16 -20 -13 -30 -27 -26 -36 8 -21 25 -17 63 16 19 16 47
29 61 30 15 0 32 7 40 16 11 14 14 13 26 -11 8 -14 11 -30 8 -35 -9 -14 11
-12 27 3 18 16 55 37 67 37 5 0 12 -15 15 -34 6 -29 11 -34 43 -39 26 -5 45
-1 62 9 22 15 25 15 33 0 5 -9 16 -16 23 -16 17 0 20 -26 5 -35 -16 -10 -12
-32 7 -39 10 -4 22 -1 28 6 17 22 63 48 84 48 21 0 39 -39 27 -59 -12 -19 13
-21 48 -4 20 9 36 20 36 23 0 4 6 7 13 8 6 0 23 4 36 8 22 7 23 5 19 -24 -5
-34 17 -47 28 -17 8 20 74 21 74 1 0 -21 19 -30 35 -16 23 19 70 8 73 -18 4
-25 17 -28 38 -7 8 8 22 11 30 8 9 -3 20 0 24 8 7 11 10 10 16 -5 4 -10 2 -27
-5 -38 -18 -29 -3 -43 23 -20 36 33 67 46 76 32 6 -9 10 -8 17 5 8 13 12 15
18 5 5 -8 2 -18 -8 -25 -30 -22 -21 -35 16 -23 17 6 36 15 41 19 6 5 16 9 23
9 15 0 18 -36 3 -45 -5 -3 -10 -15 -10 -26 0 -20 1 -20 31 -2 16 10 60 46 96
80 36 35 74 65 83 68 10 3 21 12 24 20 5 13 2 13 -22 1 -15 -8 -56 -24 -90
-35 -65 -22 -99 -22 -217 0 -27 5 -93 16 -145 24 -52 8 -117 19 -144 25 -27 5
-70 11 -95 11 -25 1 -58 8 -73 16 -15 7 -49 15 -75 18 -53 4 -115 19 -183 42
-25 8 -63 18 -84 20 -22 3 -49 14 -60 24 -11 11 -29 19 -40 19 -19 1 -84 21
-146 47 -40 16 -93 35 -117 40 -27 6 -31 23 -5 24 11 0 13 2 4 6 -8 3 -25 0
-38 -8 -26 -14 -34 -10 -38 18 -2 10 -12 18 -22 19 -48 3 -50 4 -30 19 27 20
42 19 67 -6 14 -14 28 -19 42 -15 12 3 37 0 54 -6 34 -12 58 -3 33 12 -13 8
-12 10 3 10 9 0 17 5 17 10 0 6 -9 10 -20 10 -11 0 -20 -4 -20 -9 0 -4 -11 -6
-25 -3 -28 5 -34 32 -7 33 9 0 2 5 -16 10 -18 5 -30 14 -27 19 9 15 86 12 104
-3 9 -8 48 -19 86 -26 39 -7 87 -19 108 -28 29 -13 42 -14 62 -5 19 9 25 9 25
0 0 -9 3 -9 11 -1 12 12 3 37 -10 28 -10 -6 -108 28 -124 44 -6 6 -21 11 -32
11 -31 0 -85 29 -85 46 0 8 -9 14 -21 14 -11 0 -17 5 -14 10 7 11 58 14 68 3
4 -3 22 -8 40 -10 28 -3 32 0 33 22 2 18 -3 25 -17 25 -25 0 -24 17 2 31 15 8
28 8 43 1 11 -6 40 -13 64 -16 23 -3 60 -9 83 -12 36 -6 40 -4 37 12 -3 19
-18 29 -82 53 -22 9 -35 20 -32 28 3 8 -2 13 -14 13 -11 0 -20 4 -20 9 0 15
27 20 62 11 59 -15 148 -21 148 -10 0 5 -11 10 -25 10 -37 0 -74 20 -68 37 5
12 -3 13 -43 8 l-49 -7 22 21 c18 17 35 21 88 21 52 0 65 3 65 15 0 16 -14 24
-44 29 -9 1 -16 5 -16 9 0 4 0 16 0 27 0 11 6 20 14 20 23 0 74 58 78 87 2 18
9 27 23 28 11 1 27 4 35 6 9 3 14 -2 11 -11 -12 -45 -12 -60 -3 -60 6 0 14 9
17 20 3 11 13 20 21 20 8 0 17 7 20 15 4 8 12 15 20 15 14 0 18 -22 14 -69 -1
-15 2 -21 9 -16 6 3 10 25 9 47 -2 26 2 42 10 45 7 3 12 -4 12 -16 0 -12 2
-21 4 -21 2 0 20 16 41 36 l38 35 -36 -6 c-33 -6 -111 13 -142 36 -5 4 -19 9
-30 11 -18 3 -18 5 8 22 15 11 40 19 54 20 15 1 28 7 31 14 2 8 -2 12 -13 10
-10 -2 -20 3 -22 10 -3 7 4 12 16 12 12 0 21 5 21 10 0 14 -23 13 -38 -2 -6
-6 -15 -9 -18 -5 -13 13 17 35 57 41 31 5 40 11 37 24 -1 9 1 23 5 30 6 8 0
12 -20 12 -26 1 -27 1 -8 13 35 20 89 37 124 37 34 0 36 13 3 15 -9 1 -30 2
-46 3 -20 2 -27 6 -22 17 4 10 -1 15 -14 15 -11 0 -20 5 -20 10 0 6 8 10 19
10 13 0 21 10 26 33 11 41 12 50 14 62 0 6 10 16 21 23 19 12 20 11 14 -14 -5
-19 -4 -25 5 -20 6 4 11 14 11 21 0 19 34 36 57 29 17 -5 17 -5 -1 10 -12 10
-17 23 -14 40 4 20 0 26 -16 29 -22 4 -18 7 31 22 15 5 15 6 -1 18 -15 11 -14
15 8 48 14 20 23 39 20 42 -5 5 11 64 40 144 9 23 13 49 10 56 -3 10 4 17 23
22 27 7 28 7 6 16 -28 10 -30 39 -3 39 20 0 23 19 6 31 -11 9 2 29 19 29 7 0
15 7 19 15 3 8 12 15 21 15 8 0 15 4 15 9 0 18 37 21 74 6 35 -15 40 -15 55
-1 22 20 50 20 57 1 8 -20 34 -19 49 2 11 15 14 14 34 -6 29 -29 43 -23 56 21
10 34 11 35 33 20 17 -11 28 -12 46 -4 18 8 27 7 39 -5 19 -19 40 -8 32 18 -5
15 -1 19 16 19 12 0 30 -7 39 -15 16 -14 60 -11 60 5 0 4 12 22 27 39 20 22
36 31 59 31 28 0 63 20 102 57 7 7 22 13 32 13 10 0 21 4 25 9 3 5 29 17 58
27 28 9 68 26 87 38 19 11 63 34 98 52 35 18 69 37 75 41 11 8 169 81 227 105
14 6 34 15 45 20 11 4 40 12 65 17 35 7 15 9 -93 10 -76 1 -136 -3 -133 -8 7
-10 -27 -51 -43 -51 -16 0 -14 15 4 30 8 7 15 17 15 22 0 11 -362 9 -370 -2
-3 -4 -16 -10 -30 -14 -24 -7 -24 -6 -6 8 19 15 19 16 -11 16 -16 0 -40 -9
-53 -20 -30 -26 -48 -26 -25 0 18 20 17 20 -1558 20 l-1577 0 0 -2565z m3591
2523 c-12 -32 -165 -107 -234 -115 l-38 -4 15 24 c17 26 62 54 72 45 3 -4 0
-17 -7 -30 -8 -15 1 -10 27 17 31 31 40 35 42 22 5 -24 16 -21 32 8 14 26 40
34 40 13 0 -7 10 -1 21 15 25 33 42 36 30 5z m-546 2 c-3 -5 -12 -10 -18 -10
-7 0 -6 4 3 10 19 12 23 12 15 0z m285 -79 c0 -5 -7 -14 -15 -21 -8 -7 -13
-16 -10 -20 6 -10 -20 -20 -52 -20 -18 0 -24 4 -19 15 3 8 1 15 -4 15 -5 0
-11 -9 -15 -19 -6 -20 -71 -48 -83 -36 -12 12 57 65 86 66 15 0 43 7 62 14 43
17 50 17 50 6z m-200 -48 c-1 -20 -56 -63 -80 -63 -5 0 -7 6 -4 14 4 11 0 13
-15 9 -11 -3 -19 -10 -18 -17 1 -6 -11 -12 -26 -14 -25 -3 -27 -2 -16 15 15
25 59 44 84 37 11 -3 29 2 40 10 22 17 35 20 35 9z m-171 -39 c2 -2 -4 -12
-13 -23 -20 -22 -66 -33 -82 -20 -7 5 -24 5 -43 -2 -37 -13 -44 -10 -28 12 24
31 141 54 166 33z m-183 -29 c-21 -16 -32 -13 -21 4 3 6 14 11 23 11 15 -1 15
-2 -2 -15z m-191 -14 c-11 -10 -31 -22 -45 -26 -21 -7 -22 -6 -10 7 18 18 52
37 65 38 5 0 1 -9 -10 -19z m100 9 c-3 -5 -13 -10 -21 -10 -8 0 -12 5 -9 10 3
6 13 10 21 10 8 0 12 -4 9 -10z m45 -9 c0 -11 -9 -21 -22 -24 -29 -8 -36 -1
-8 8 13 4 19 12 16 21 -3 8 -1 14 4 14 6 0 10 -8 10 -19z m-92 -9 c2 -7 -3
-12 -12 -12 -9 0 -16 7 -16 16 0 17 22 14 28 -4z m-251 -228 c-3 -3 -12 -4
-19 -1 -8 3 -5 6 6 6 11 1 17 -2 13 -5z m-902 -1544 c-3 -6 -25 -10 -48 -10
-26 0 -37 3 -29 9 19 11 84 12 77 1z m0 -40 c3 -5 -1 -10 -9 -10 -8 0 -18 5
-21 10 -3 6 1 10 9 10 8 0 18 -4 21 -10z m-235 -101 c0 -5 -9 -9 -20 -9 -19 0
-26 11 -14 23 8 8 34 -3 34 -14z m120 -250 c0 -5 -4 -9 -10 -9 -5 0 -10 7 -10
16 0 8 5 12 10 9 6 -3 10 -10 10 -16z m-587 -96 c4 -2 7 -9 7 -15 0 -14 -51
-1 -70 19 -13 13 -11 14 20 8 19 -4 38 -9 43 -12z m-36 -89 c-3 -3 -12 -4 -19
-1 -8 3 -5 6 6 6 11 1 17 -2 13 -5z m328 -104 c3 -6 -5 -10 -19 -10 -14 0 -28
5 -31 10 -3 6 5 10 19 10 14 0 28 -4 31 -10z m3710 -210 c3 -5 -1 -10 -10 -10
-9 0 -13 5 -10 10 3 6 8 10 10 10 2 0 7 -4 10 -10z m600 -76 c-25 -26 -43 -49
-40 -52 3 -3 -7 -13 -23 -22 -20 -12 -31 -14 -44 -6 -20 12 -14 28 7 19 10 -3
21 8 34 38 16 34 21 40 27 26 5 -14 9 -15 20 -6 8 6 14 17 14 24 0 15 44 46
48 34 2 -5 -17 -29 -43 -55z m-1335 52 c0 -3 -4 -8 -10 -11 -5 -3 -10 -1 -10
4 0 6 5 11 10 11 6 0 10 -2 10 -4z m550 -61 c-7 -9 -15 -13 -17 -11 -7 7 7 26
19 26 6 0 6 -6 -2 -15z m680 -85 c0 -5 -7 -10 -16 -10 -8 0 -12 5 -9 10 3 6
10 10 16 10 5 0 9 -4 9 -10z m-34 -67 c2 -12 -24 -39 -30 -32 -2 2 -1 22 2 43
4 34 6 37 15 20 6 -10 12 -24 13 -31z m-969 -26 c-5 -15 -32 -21 -63 -13 -33
9 -31 34 4 38 33 5 65 -9 59 -25z m-691 6 c-2 -5 -22 -16 -43 -27 -21 -10 -44
-21 -52 -25 -8 -4 -17 -14 -19 -22 -4 -11 -2 -12 9 -1 18 17 39 15 39 -4 0 -8
-17 -22 -37 -31 -40 -17 -83 -23 -83 -12 0 10 57 69 67 69 5 0 16 9 26 20 9
11 26 20 36 20 11 0 23 5 26 10 3 6 13 10 21 10 8 0 13 -3 10 -7z m-363 -71
c-2 -8 4 -9 22 -2 14 5 25 7 25 4 0 -2 8 0 18 5 13 7 22 7 30 -1 8 -8 15 -8
27 2 18 15 27 10 16 -8 -11 -19 -124 -40 -184 -35 -28 2 -53 6 -55 8 -7 7 72
43 88 41 8 -1 14 -7 13 -14z m207 8 c0 -5 -5 -10 -11 -10 -5 0 -7 5 -4 10 3 6
8 10 11 10 2 0 4 -4 4 -10z m-30 -27 c-1 -10 -21 -35 -43 -52 -10 -8 -47 -15
-85 -17 -62 -3 -65 -2 -42 11 14 8 44 17 68 21 23 3 53 15 65 25 23 19 37 24
37 12z m-200 -52 c0 -10 -25 -21 -48 -21 -15 1 -14 3 2 15 22 17 46 20 46 6z
m-495 -101 c-3 -5 -16 -10 -28 -10 -18 0 -19 2 -7 10 20 13 43 13 35 0z m1490
0 c-3 -5 -10 -10 -16 -10 -5 0 -9 5 -9 10 0 6 7 10 16 10 8 0 12 -4 9 -10z
m-2825 -30 c0 -5 -2 -10 -4 -10 -3 0 -8 5 -11 10 -3 6 -1 10 4 10 6 0 11 -4
11 -10z m2635 -29 c3 -5 1 -12 -5 -16 -5 -3 -10 1 -10 9 0 18 6 21 15 7z m-65
-41 c0 -5 -2 -10 -4 -10 -3 0 -8 5 -11 10 -3 6 -1 10 4 10 6 0 11 -4 11 -10z
m305 -10 c3 -6 -4 -10 -17 -10 -18 0 -20 2 -8 10 19 12 18 12 25 0z m-1528 -6
c-3 -3 -12 -4 -19 -1 -8 3 -5 6 6 6 11 1 17 -2 13 -5z m1403 -34 c0 -5 -5 -10
-11 -10 -5 0 -7 5 -4 10 3 6 8 10 11 10 2 0 4 -4 4 -10z m-3010 -30 c0 -5 -4
-10 -10 -10 -5 0 -10 5 -10 10 0 6 5 10 10 10 6 0 10 -4 10 -10z m3461 -11
c11 -5 17 -14 14 -20 -9 -14 -25 -11 -25 5 0 8 -6 17 -12 19 -7 3 -9 6 -5 6 5
1 17 -4 28 -10z m-331 -3 c0 -15 -14 -35 -21 -30 -15 9 -10 34 6 34 8 0 15 -2
15 -4z m736 -36 c0 -16 -5 -18 -26 -13 -33 8 -40 12 -40 24 0 6 8 6 20 -1 16
-8 20 -8 20 4 0 9 6 13 13 10 7 -2 13 -13 13 -24z m-1272 -4 c-3 -9 -10 -16
-15 -16 -6 0 -5 9 1 21 13 24 24 20 14 -5z m405 3 c-11 -11 -23 -18 -27 -15
-3 4 3 13 14 21 28 22 37 18 13 -6z m-99 7 c0 -3 -4 -8 -10 -11 -5 -3 -10 -1
-10 4 0 6 5 11 10 11 6 0 10 -2 10 -4z m735 -16 c-3 -5 -12 -10 -18 -10 -7 0
-6 4 3 10 19 12 23 12 15 0z m-225 -15 c-14 -17 -30 -20 -30 -6 0 5 8 12 18
14 9 3 19 5 21 6 2 0 -2 -6 -9 -14z m110 11 c0 -3 -4 -8 -10 -11 -5 -3 -10 -1
-10 4 0 6 5 11 10 11 6 0 10 -2 10 -4z m180 -5 c0 -5 -7 -14 -15 -21 -16 -14
-18 -10 -9 14 6 17 24 22 24 7z m-1180 -20 c0 -14 -18 -23 -31 -15 -8 4 -7 9
2 15 18 11 29 11 29 0z m873 -8 c15 -3 29 -9 32 -13 6 -10 -46 -7 -63 4 -7 4
-30 5 -50 2 -35 -6 -36 -6 -17 9 13 10 29 14 45 10 14 -3 37 -9 53 -12z m379
-5 c-7 -7 -12 -8 -12 -2 0 14 12 26 19 19 2 -3 -1 -11 -7 -17z m118 18 c0 -3
-4 -8 -10 -11 -5 -3 -10 -1 -10 4 0 6 5 11 10 11 6 0 10 -2 10 -4z m-336 -12
c22 -8 20 -24 -2 -24 -10 0 -19 7 -19 15 0 17 0 17 21 9z m-750 -18 c-10 -8
-21 -12 -24 -10 -5 6 21 24 34 24 6 0 1 -6 -10 -14z m76 10 c0 -2 -7 -6 -15
-10 -8 -3 -15 -1 -15 4 0 6 7 10 15 10 8 0 15 -2 15 -4z m580 -31 c0 -8 -4
-15 -10 -15 -5 0 -7 7 -4 15 4 8 8 15 10 15 2 0 4 -7 4 -15z m761 -5 c5 0 9
-4 9 -10 0 -14 -13 -12 -36 6 -17 14 -17 15 -1 10 10 -3 23 -6 28 -6z m-456
-10 c-11 -5 -14 -9 -7 -9 29 -2 8 -20 -30 -26 -83 -12 -98 -17 -98 -30 0 -7
-11 -15 -25 -17 -18 -4 -22 -2 -16 6 5 6 10 16 10 21 0 6 13 12 28 13 15 2 36
13 47 24 10 10 24 17 32 14 8 -3 14 -1 14 4 0 6 15 10 33 9 27 0 29 -2 12 -9z
m-3591 -15 c4 -10 -1 -15 -16 -15 -17 0 -18 2 -8 15 7 8 14 15 15 15 2 0 5 -7
9 -15z m3131 5 c4 -6 10 -8 15 -5 5 3 12 0 16 -6 5 -9 0 -10 -17 -6 -13 4 -30
7 -37 7 -7 0 -10 5 -7 10 8 13 22 13 30 0z m287 -1 c-11 -10 -92 -28 -92 -20
0 17 25 28 60 27 22 0 36 -3 32 -7z m-337 -9 c-3 -5 -10 -10 -16 -10 -5 0 -9
5 -9 10 0 6 7 10 16 10 8 0 12 -4 9 -10z m155 -10 c-19 -14 -28 -16 -39 -7
-11 10 -10 13 10 18 45 13 55 9 29 -11z m480 16 c0 -3 -4 -8 -10 -11 -5 -3
-10 -1 -10 4 0 6 5 11 10 11 6 0 10 -2 10 -4z m75 -16 c3 -5 1 -10 -4 -10 -6
0 -11 5 -11 10 0 6 2 10 4 10 3 0 8 -4 11 -10z m75 -21 c0 -5 -4 -9 -10 -9 -5
0 -10 -7 -10 -15 0 -8 -8 -15 -17 -15 -14 0 -15 2 -5 9 7 4 14 17 15 28 1 20
27 21 27 2z m250 6 c10 -12 10 -19 2 -27 -9 -9 -12 -8 -12 5 0 9 -4 17 -10 17
-5 0 -10 5 -10 10 0 15 16 12 30 -5z m-824 -10 c-8 -8 -19 -15 -25 -15 -6 0
-8 7 -5 15 4 8 15 15 26 15 17 0 18 -2 4 -15z m89 -5 c3 -5 -3 -10 -15 -10
-12 0 -18 5 -15 10 3 6 10 10 15 10 5 0 12 -4 15 -10z m285 -11 c0 -11 -12
-11 -35 -3 -12 5 -14 9 -4 14 14 9 39 2 39 -11z m103 14 c-7 -2 -21 -2 -30 0
-10 3 -4 5 12 5 17 0 24 -2 18 -5z m-846 -20 c-9 -9 -19 -14 -23 -11 -10 10 6
28 24 28 15 0 15 -1 -1 -17z m-4147 -3 c0 -5 -5 -10 -11 -10 -5 0 -7 5 -4 10
3 6 8 10 11 10 2 0 4 -4 4 -10z m4230 0 c-20 -13 -40 -13 -40 0 0 6 12 10 28
10 21 0 24 -2 12 -10z m520 -8 c0 -7 -48 -32 -61 -32 -4 0 -5 9 -2 19 6 25 63
37 63 13z m744 -70 c16 -31 33 -67 39 -79 6 -13 8 -26 4 -29 -10 -11 -55 49
-68 91 -7 22 -16 45 -19 50 -4 6 -10 21 -13 33 -5 22 -4 23 12 8 10 -9 30 -42
45 -74z m-544 48 c0 -5 -7 -7 -15 -4 -8 4 -12 10 -9 15 6 11 24 2 24 -11z
m447 -15 c12 -19 19 -37 15 -39 -11 -7 -62 41 -62 59 0 26 24 16 47 -20z
m-962 16 c-6 -5 -21 -12 -35 -16 -24 -7 -24 -7 -5 9 21 16 56 23 40 7z m350
-1 c3 -5 -1 -10 -9 -10 -9 0 -16 5 -16 10 0 6 4 10 9 10 6 0 13 -4 16 -10z
m-635 -21 c-7 -11 -14 -18 -17 -15 -8 8 5 36 17 36 7 0 7 -6 0 -21z m691 4
c13 -15 12 -15 -8 -4 -24 12 -29 21 -14 21 5 0 15 -7 22 -17z m-744 1 c-3 -3
-12 -4 -19 -1 -8 3 -5 6 6 6 11 1 17 -2 13 -5z m143 -3 c0 -11 -31 -24 -39
-16 -3 3 1 10 9 15 19 12 30 12 30 1z m260 -16 c0 -15 -6 -25 -14 -25 -8 0
-23 -13 -33 -30 -19 -32 -33 -39 -33 -15 0 8 4 15 9 15 4 0 6 11 4 24 -4 17
-10 23 -22 19 -13 -4 -14 -3 -1 5 8 6 18 8 22 6 13 -8 49 6 43 17 -4 5 1 9 9
9 10 0 16 -9 16 -25z m-200 10 c0 -2 -10 -10 -22 -16 -21 -11 -22 -11 -9 4 13
16 31 23 31 12z m280 1 c0 -3 -4 -8 -10 -11 -5 -3 -10 -1 -10 4 0 6 5 11 10
11 6 0 10 -2 10 -4z m-227 -38 c-9 -15 -23 -8 -23 12 0 17 2 19 14 8 8 -7 12
-16 9 -20z m972 22 c3 -5 -1 -10 -10 -10 -9 0 -13 5 -10 10 3 6 8 10 10 10 2
0 7 -4 10 -10z m-665 -9 c0 -5 -6 -12 -12 -14 -10 -4 -10 -8 1 -15 11 -8 9
-11 -8 -17 -13 -4 -27 -1 -37 9 -14 15 -14 16 1 16 8 0 18 7 21 15 7 16 34 21
34 6z m255 -1 c3 -5 -1 -10 -9 -10 -9 0 -16 5 -16 10 0 6 4 10 9 10 6 0 13 -4
16 -10z m110 1 c10 -17 -12 -21 -25 -6 -10 12 -10 15 3 15 9 0 18 -4 22 -9z
m-1017 -23 c-6 -18 -48 -30 -48 -13 0 12 14 20 43 24 5 0 7 -4 5 -11z m252 4
c0 -4 -17 -12 -37 -19 l-38 -11 24 19 c23 19 51 25 51 11z m286 -7 c-21 -16
-32 -13 -21 4 3 6 14 11 23 11 15 -1 15 -2 -2 -15z m444 5 c0 -5 -7 -10 -15
-10 -8 0 -15 5 -15 10 0 6 7 10 15 10 8 0 15 -4 15 -10z m-930 -15 c-7 -8 -16
-15 -21 -15 -5 0 -6 7 -3 15 4 8 13 15 21 15 13 0 13 -3 3 -15z m240 0 c-7 -8
-16 -12 -21 -9 -13 8 -1 24 18 24 13 0 13 -3 3 -15z m110 6 c0 -5 -16 -11 -35
-13 -36 -4 -36 6 0 15 32 8 35 7 35 -2z m1026 1 c-3 -5 8 -22 24 -39 16 -17
27 -33 23 -36 -8 -9 -33 12 -33 28 0 7 -7 18 -15 25 -17 14 -20 30 -4 30 5 0
8 -4 5 -8z m-698 -20 c2 -8 -8 -12 -27 -12 -33 0 -42 16 -13 23 23 6 35 3 40
-11z m-228 -23 c0 -6 -4 -7 -10 -4 -5 3 -10 11 -10 16 0 6 5 7 10 4 6 -3 10
-11 10 -16z m71 -22 c-12 -12 -31 0 -31 19 0 12 3 12 20 2 11 -7 16 -16 11
-21z m239 23 c0 -5 -2 -10 -4 -10 -3 0 -8 5 -11 10 -3 6 -1 10 4 10 6 0 11 -4
11 -10z m-755 -19 c-3 -6 -11 -11 -17 -11 -6 0 -6 6 2 15 14 17 26 13 15 -4z
m210 9 c3 -5 -1 -10 -10 -10 -9 0 -13 5 -10 10 3 6 8 10 10 10 2 0 7 -4 10
-10z m868 -5 c4 -8 3 -16 -1 -19 -4 -3 -9 4 -9 15 -2 23 3 25 10 4z m-963 1
c0 -2 -9 -6 -20 -9 -11 -3 -20 -1 -20 4 0 5 9 9 20 9 11 0 20 -2 20 -4z
m-3940 -31 c-7 -9 -15 -13 -18 -10 -3 2 1 11 8 20 7 9 15 13 18 10 3 -2 -1
-11 -8 -20z m2990 15 c0 -5 -5 -10 -11 -10 -5 0 -7 5 -4 10 3 6 8 10 11 10 2
0 4 -4 4 -10z m1180 -10 c13 -8 13 -10 -2 -10 -9 0 -20 5 -23 10 -8 13 5 13
25 0z m517 4 c-3 -3 -12 -4 -19 -1 -8 3 -5 6 6 6 11 1 17 -2 13 -5z m-1480
-36 c-3 -8 -6 -5 -6 6 -1 11 2 17 5 13 3 -3 4 -12 1 -19z m1070 8 c-10 -8 -27
-12 -37 -9 -29 8 -13 23 23 23 29 -1 30 -2 14 -14z m203 4 c0 -5 -5 -10 -11
-10 -5 0 -7 5 -4 10 3 6 8 10 11 10 2 0 4 -4 4 -10z m-655 -10 c-3 -5 -14 -10
-23 -10 -15 0 -15 2 -2 10 20 13 33 13 25 0z m235 0 c0 -5 -6 -10 -12 -10 -7
0 -23 -3 -35 -6 -13 -4 -23 -2 -23 4 0 6 12 13 28 15 15 2 30 5 35 6 4 0 7 -3
7 -9z m1205 -10 c10 -11 13 -20 7 -20 -7 0 -12 5 -12 10 0 6 -9 10 -20 10 -11
0 -20 5 -20 10 0 17 26 11 45 -10z m-1535 0 c0 -5 -4 -10 -10 -10 -5 0 -10 5
-10 10 0 6 5 10 10 10 6 0 10 -4 10 -10z m1419 -34 c7 -16 14 -45 15 -66 2
-34 0 -38 -16 -29 -10 5 -18 12 -18 15 0 3 5 2 10 -1 18 -11 10 22 -12 51 -20
24 -20 27 -4 21 18 -7 18 -6 1 19 -12 19 -13 25 -3 22 7 -2 19 -17 27 -32z
m-729 4 c0 -5 -4 -10 -9 -10 -6 0 -13 5 -16 10 -3 6 1 10 9 10 9 0 16 -4 16
-10z m-150 -30 c0 -5 -7 -7 -15 -4 -8 4 -12 10 -9 15 6 11 24 2 24 -11z m123
-10 c-4 -4 -18 -11 -30 -15 -17 -4 -23 -2 -23 9 0 8 10 16 23 18 27 5 42 -1
30 -12z m902 4 c20 -15 20 -16 -4 -12 -14 2 -26 9 -29 16 -5 16 9 15 33 -4z
m-4840 -24 c3 -5 -1 -10 -10 -10 -9 0 -13 5 -10 10 3 6 8 10 10 10 2 0 7 -4
10 -10z m3685 0 c0 -5 -4 -10 -10 -10 -5 0 -10 5 -10 10 0 6 5 10 10 10 6 0
10 -4 10 -10z m470 0 c-8 -5 -22 -9 -30 -9 -10 0 -8 3 5 9 27 12 43 12 25 0z
m-140 -9 c0 -10 -30 -24 -37 -17 -3 3 -2 9 2 15 8 13 35 15 35 2z m-243 -7
c-3 -3 -12 -4 -19 -1 -8 3 -5 6 6 6 11 1 17 -2 13 -5z m-1967 -25 c0 -11 -4
-17 -10 -14 -5 3 -10 13 -10 21 0 8 5 14 10 14 6 0 10 -9 10 -21z m2457 15
c-3 -3 -12 -4 -19 -1 -8 3 -5 6 6 6 11 1 17 -2 13 -5z m-162 -14 c-3 -5 -11
-10 -16 -10 -6 0 -7 5 -4 10 3 6 11 10 16 10 6 0 7 -4 4 -10z m765 -5 c16 -19
1 -19 -24 0 -16 12 -17 15 -4 15 8 0 21 -7 28 -15z m-1440 -4 c0 -6 -4 -13
-10 -16 -5 -3 -10 1 -10 9 0 9 5 16 10 16 6 0 10 -4 10 -9z m512 -23 c-12 -12
-35 -1 -27 12 3 5 13 6 21 3 10 -4 12 -9 6 -15z m-586 -15 c-10 -10 -19 5 -10
18 6 11 8 11 12 0 2 -7 1 -15 -2 -18z m101 -5 c-3 -7 -5 -2 -5 12 0 14 2 19 5
13 2 -7 2 -19 0 -25z m-167 -15 c0 -10 -4 -25 -10 -33 -8 -12 -10 -12 -15 2
-4 9 -13 14 -21 11 -23 -9 -16 13 9 25 31 15 37 14 37 -5z m290 1 c0 -8 -5
-12 -10 -9 -6 4 -8 11 -5 16 9 14 15 11 15 -7z m827 10 c-3 -3 -12 -4 -19 -1
-8 3 -5 6 6 6 11 1 17 -2 13 -5z m-1554 -19 c-3 -9 -8 -14 -10 -11 -3 3 -2 9
2 15 9 16 15 13 8 -4z m247 6 c0 -6 -5 -13 -12 -17 -6 -4 -8 -3 -4 4 3 5 0 13
-6 15 -8 3 -6 6 5 6 9 1 17 -3 17 -8z m-120 -23 c0 -12 -3 -18 -7 -14 -11 10
-12 36 -2 36 5 0 9 -10 9 -22z m1515 12 c-3 -5 -14 -10 -23 -10 -15 0 -15 2
-2 10 20 13 33 13 25 0z m-1612 -40 c-6 -31 -7 -32 -14 -11 -6 14 -4 27 4 36
16 18 18 14 10 -25z m500 33 c-7 -2 -21 -2 -30 0 -10 3 -4 5 12 5 17 0 24 -2
18 -5z m-603 -35 c0 -18 -2 -20 -9 -8 -6 8 -7 18 -5 22 9 14 14 9 14 -14z
m336 -5 c-10 -10 -19 5 -10 18 6 11 8 11 12 0 2 -7 1 -15 -2 -18z m101 -3 c-2
-33 -11 -39 -21 -14 -4 9 -1 23 5 30 16 20 18 18 16 -16z m280 -2 c-3 -7 -5
-2 -5 12 0 14 2 19 5 13 2 -7 2 -19 0 -25z m-482 -18 c-5 -8 -11 -8 -17 -2 -6
6 -7 16 -3 22 5 8 11 8 17 2 6 -6 7 -16 3 -22z m-195 -11 c0 -11 -4 -18 -10
-14 -5 3 -7 12 -3 20 7 21 13 19 13 -6z m2090 11 c0 -13 -11 -13 -30 0 -12 8
-11 10 8 10 12 0 22 -4 22 -10z m-1640 -32 c0 -17 -3 -18 -14 -8 -8 6 -12 18
-9 26 7 19 23 7 23 -18z m1535 11 c10 -14 1 -21 -19 -13 -9 3 -13 10 -10 15 7
12 21 11 29 -2z m-1845 -30 c0 -10 -6 -19 -13 -19 -11 0 -15 23 -8 48 3 12 21
-13 21 -29z m97 9 c-3 -8 -6 -5 -6 6 -1 11 2 17 5 13 3 -3 4 -12 1 -19z m-177
2 c0 -5 -4 -10 -10 -10 -5 0 -10 5 -10 10 0 6 5 10 10 10 6 0 10 -4 10 -10z
m546 -16 c-4 -9 -9 -15 -11 -12 -3 3 -3 13 1 22 4 9 9 15 11 12 3 -3 3 -13 -1
-22z m334 6 c0 -5 -4 -10 -10 -10 -5 0 -10 5 -10 10 0 6 5 10 10 10 6 0 10 -4
10 -10z m-4183 -16 c-3 -3 -12 -4 -19 -1 -8 3 -5 6 6 6 11 1 17 -2 13 -5z
m4390 -16 c-3 -8 -6 -5 -6 6 -1 11 2 17 5 13 3 -3 4 -12 1 -19z m-1360 -80
c-3 -7 -5 -2 -5 12 0 14 2 19 5 13 2 -7 2 -19 0 -25z m918 -68 c-3 -5 -10 -10
-16 -10 -5 0 -9 5 -9 10 0 6 7 10 16 10 8 0 12 -4 9 -10z m265 -12 c0 -16 -3
-19 -11 -11 -6 6 -8 16 -5 22 11 17 16 13 16 -11z m1181 -121 c-8 -8 -11 -7
-11 4 0 20 13 34 18 19 3 -7 -1 -17 -7 -23z m9 -37 c0 -5 -5 -10 -11 -10 -5 0
-7 5 -4 10 3 6 8 10 11 10 2 0 4 -4 4 -10z m-2750 -124 c0 -3 -4 -8 -10 -11
-5 -3 -10 -1 -10 4 0 6 5 11 10 11 6 0 10 -2 10 -4z m-615 -16 c3 -5 1 -10 -4
-10 -6 0 -11 5 -11 10 0 6 2 10 4 10 3 0 8 -4 11 -10z"/>
<path d="M5312 5105 c49 -26 78 -32 78 -16 0 5 14 2 31 -6 20 -10 33 -12 38
-5 3 5 26 16 51 23 25 7 49 16 55 21 5 4 -60 8 -145 8 l-155 0 47 -25z"/>
<path d="M5180 4746 c0 -8 17 -23 38 -33 21 -11 38 -29 40 -40 2 -11 14 -25
28 -31 30 -14 32 0 4 28 -11 11 -17 20 -13 20 3 0 -2 9 -12 20 -10 11 -22 20
-27 20 -5 0 -16 7 -24 15 -19 19 -34 19 -34 1z"/>
<path d="M5320 4614 c0 -6 7 -19 15 -30 8 -10 14 -14 14 -9 0 6 -6 19 -14 29
-8 11 -15 15 -15 10z"/>
<path d="M2585 4580 c3 -5 8 -10 11 -10 2 0 4 5 4 10 0 6 -5 10 -11 10 -5 0
-7 -4 -4 -10z"/>
<path d="M5380 4535 c0 -8 5 -15 10 -15 6 0 10 7 10 15 0 8 -4 15 -10 15 -5 0
-10 -7 -10 -15z"/>
<path d="M5450 4456 c0 -13 7 -29 15 -36 19 -16 19 -41 0 -66 -20 -26 -19 -54
3 -54 9 0 34 6 55 13 l38 14 -51 76 c-27 42 -52 77 -55 77 -3 0 -5 -11 -5 -24z"/>
<path d="M5680 4356 c0 -9 4 -16 10 -16 5 0 12 -17 15 -37 3 -21 12 -51 18
-66 11 -25 14 -26 31 -14 14 10 17 21 12 38 -8 32 -86 117 -86 95z"/>
<path d="M5644 4157 c-10 -26 4 -82 25 -101 26 -24 31 -10 16 47 -14 57 -31
79 -41 54z"/>
<path d="M7352 4093 c-12 -5 -122 -226 -122 -245 0 -6 -17 -47 -39 -92 -21
-44 -64 -151 -95 -236 -31 -85 -66 -177 -77 -205 -12 -27 -25 -71 -29 -97 -5
-26 -13 -56 -19 -67 -6 -11 -20 -46 -31 -78 -10 -32 -33 -98 -50 -148 -16 -49
-30 -99 -30 -110 0 -12 -4 -25 -10 -31 -5 -5 -14 -41 -20 -79 l-10 -70 32 -27
c37 -32 54 -35 66 -10 13 23 94 273 132 402 16 58 44 142 62 188 l31 83 42
-138 c23 -76 49 -154 60 -173 36 -70 119 -186 166 -235 l49 -51 -24 -89 c-48
-179 -67 -298 -69 -430 -2 -102 16 -141 96 -205 102 -83 192 -90 322 -26 154
76 275 210 422 468 143 249 167 323 166 498 -2 279 -81 440 -240 486 -71 21
-101 14 -201 -44 -164 -95 -287 -235 -384 -438 l-42 -87 -42 46 c-78 87 -171
295 -189 423 l-7 52 58 47 c32 25 75 55 96 66 21 11 45 30 53 42 8 13 27 30
43 38 15 7 50 33 77 58 28 24 100 79 161 122 61 43 132 96 157 117 26 21 70
51 99 66 72 39 88 54 88 88 0 38 -50 91 -77 81 -10 -3 -47 -27 -83 -52 -36
-25 -101 -69 -145 -99 -67 -45 -263 -200 -518 -409 -84 -69 -84 -68 71 272 87
191 103 235 98 263 -9 58 -47 84 -94 65z m784 -858 c26 -11 40 -27 57 -62 20
-43 22 -64 22 -203 -1 -167 -9 -219 -67 -398 -41 -131 -74 -192 -154 -292
-162 -202 -277 -290 -377 -290 -59 0 -79 10 -106 54 -27 44 -28 131 -1 268 21
107 63 265 74 275 3 4 24 0 46 -7 37 -12 43 -12 59 6 32 33 35 71 8 98 -12 12
-32 28 -42 34 -19 10 -19 13 -4 39 25 43 46 85 62 123 37 88 238 313 312 350
48 24 65 25 111 5z"/>
<path d="M2020 3635 c0 -19 24 -30 41 -19 9 5 7 11 -6 21 -24 17 -35 17 -35
-2z"/>
<path d="M5892 3630 c0 -14 2 -19 5 -12 2 6 2 18 0 25 -3 6 -5 1 -5 -13z"/>
<path d="M2157 3523 c-4 -3 -7 -17 -7 -30 0 -12 -4 -23 -10 -23 -5 0 -10 -5
-10 -11 0 -8 5 -8 15 1 8 7 15 19 15 26 0 8 4 14 8 14 5 0 17 7 28 15 18 14
18 14 -7 15 -14 0 -29 -3 -32 -7z"/>
<path d="M2450 3470 c0 -5 5 -10 10 -10 6 0 10 5 10 10 0 6 -4 10 -10 10 -5 0
-10 -4 -10 -10z"/>
<path d="M1845 3439 c-10 -15 3 -25 16 -12 7 7 7 13 1 17 -6 3 -14 1 -17 -5z"/>
<path d="M1855 3389 c-9 -29 2 -36 20 -13 18 24 19 34 1 34 -8 0 -18 -9 -21
-21z"/>
<path d="M2895 3340 c-3 -5 -1 -10 4 -10 6 0 11 5 11 10 0 6 -2 10 -4 10 -3 0
-8 -4 -11 -10z"/>
<path d="M1824 3265 c21 -16 32 -13 21 4 -3 6 -14 11 -23 11 -15 -1 -15 -2 2
-15z"/>
<path d="M2955 3210 c3 -5 8 -10 11 -10 2 0 4 5 4 10 0 6 -5 10 -11 10 -5 0
-7 -4 -4 -10z"/>
<path d="M9098 3163 c7 -3 16 -2 19 1 4 3 -2 6 -13 5 -11 0 -14 -3 -6 -6z"/>
<path d="M9245 3149 c-49 -12 -59 -21 -50 -48 8 -25 53 -51 90 -51 15 0 25 -6
25 -14 0 -8 -22 -74 -49 -148 -84 -232 -201 -612 -201 -655 0 -13 11 -30 25
-39 44 -29 62 2 85 151 16 104 208 661 245 711 12 17 16 17 83 -10 134 -52
211 -151 220 -281 2 -39 -1 -96 -7 -126 -14 -65 -109 -270 -143 -306 -40 -43
-281 -197 -337 -215 -91 -30 -146 -23 -199 25 -33 30 -45 11 -23 -38 31 -69
52 -80 145 -80 78 0 87 2 187 51 172 84 313 215 388 361 35 70 74 231 73 308
-1 165 -116 318 -290 386 -64 26 -200 35 -267 18z"/>
<path d="M3000 3105 c0 -9 5 -15 11 -13 6 2 11 8 11 13 0 5 -5 11 -11 13 -6 2
-11 -4 -11 -13z"/>
<path d="M1773 3073 c-36 -14 8 -38 51 -27 38 9 33 34 -6 33 -18 0 -39 -3 -45
-6z"/>
<path d="M1870 3052 c0 -15 24 -32 46 -32 23 0 48 22 37 33 -9 10 -83 9 -83
-1z"/>
<path d="M2044 3029 c-3 -6 -2 -14 2 -19 11 -10 54 6 54 20 0 13 -47 13 -56
-1z"/>
<path d="M1554 3002 c9 -14 58 -22 53 -8 -2 6 -16 12 -31 14 -16 2 -26 -1 -22
-6z"/>
<path d="M4980 2989 c0 -5 5 -7 10 -4 6 3 10 8 10 11 0 2 -4 4 -10 4 -5 0 -10
-5 -10 -11z"/>
<path d="M3053 2960 c-10 -19 -30 -45 -45 -59 -16 -14 -28 -29 -28 -33 0 -16
39 -7 84 18 51 28 57 48 27 85 l-19 24 -19 -35z"/>
<path d="M5733 2961 c-3 -11 -14 -21 -25 -24 -11 -3 -22 -15 -25 -26 -3 -11
-14 -23 -24 -26 -10 -4 -19 -11 -19 -17 0 -6 7 -7 18 -3 9 4 25 10 35 12 11 4
16 11 12 21 -4 11 0 13 15 9 11 -3 18 -1 14 4 -3 5 -1 9 4 9 5 0 12 14 14 30
5 33 -11 42 -19 11z"/>
<path d="M5760 2924 c0 -10 7 -14 22 -12 32 5 35 28 4 28 -17 0 -26 -5 -26
-16z"/>
<path d="M4920 2920 c0 -5 13 -10 29 -10 17 0 33 5 36 10 4 6 -8 10 -29 10
-20 0 -36 -4 -36 -10z"/>
<path d="M10986 2917 c-9 -7 -20 -31 -23 -53 -5 -36 -2 -43 27 -67 39 -33 55
-34 75 -3 14 21 14 31 4 66 -7 23 -22 48 -33 56 -25 17 -28 17 -50 1z"/>
<path d="M3390 2901 c0 -5 5 -13 10 -16 6 -3 10 -2 10 4 0 5 -4 13 -10 16 -5
3 -10 2 -10 -4z"/>
<path d="M2620 2889 c0 -5 5 -7 10 -4 6 3 10 8 10 11 0 2 -4 4 -10 4 -5 0 -10
-5 -10 -11z"/>
<path d="M4861 2865 c-31 -30 -23 -40 26 -30 23 5 31 10 21 12 -14 4 -16 8 -8
24 15 28 -9 24 -39 -6z"/>
<path d="M1711 2866 c-10 -11 -8 -16 9 -21 30 -10 48 10 22 24 -15 8 -23 7
-31 -3z"/>
<path d="M3137 2846 c-3 -8 -2 -18 4 -22 16 -9 22 2 11 21 -8 15 -10 16 -15 1z"/>
<path d="M1400 2832 c0 -15 11 -21 27 -15 12 5 12 7 1 14 -17 11 -28 11 -28 1z"/>
<path d="M5536 2831 c-4 -7 -5 -15 -2 -18 9 -9 19 4 14 18 -4 11 -6 11 -12 0z"/>
<path d="M1850 2815 c-12 -15 -10 -16 21 -13 37 3 46 21 13 26 -11 2 -27 -4
-34 -13z"/>
<path d="M5595 2819 c-4 -6 -5 -12 -2 -15 2 -3 7 2 10 11 7 17 1 20 -8 4z"/>
<path d="M5861 2816 c-9 -10 -8 -15 4 -20 10 -4 15 1 15 14 0 24 -4 25 -19 6z"/>
<path d="M1480 2810 c0 -5 7 -10 16 -10 8 0 12 5 9 10 -3 6 -10 10 -16 10 -5
0 -9 -4 -9 -10z"/>
<path d="M2675 2790 c-3 -11 -11 -20 -16 -20 -5 0 -9 -7 -9 -16 0 -14 6 -12
32 8 39 30 46 48 20 48 -12 0 -23 -9 -27 -20z"/>
<path d="M4798 2799 c-10 -5 -18 -14 -18 -19 0 -17 25 -11 38 10 13 22 7 25
-20 9z"/>
<path d="M5436 2795 c-3 -8 -1 -15 3 -15 5 0 11 7 15 15 3 8 1 15 -3 15 -5 0
-11 -7 -15 -15z"/>
<path d="M1525 2790 c3 -5 14 -10 23 -10 15 0 15 2 2 10 -20 13 -33 13 -25 0z"/>
<path d="M1995 2790 c-8 -13 20 -24 42 -16 15 6 15 8 3 16 -20 13 -37 12 -45
0z"/>
<path d="M4440 2790 c0 -5 5 -10 10 -10 6 0 10 5 10 10 0 6 -4 10 -10 10 -5 0
-10 -4 -10 -10z"/>
<path d="M5225 2770 c-10 -11 -15 -20 -11 -20 11 0 39 30 34 36 -3 2 -13 -5
-23 -16z"/>
<path d="M2140 2776 c0 -2 7 -6 15 -10 8 -3 15 -1 15 4 0 6 -7 10 -15 10 -8 0
-15 -2 -15 -4z"/>
<path d="M2533 2773 c-14 -5 -18 -43 -5 -43 13 1 42 27 42 39 0 11 -15 13 -37
4z"/>
<path d="M2311 2761 c-10 -6 -10 -10 -1 -16 13 -8 24 -1 19 14 -3 6 -10 7 -18
2z"/>
<path d="M2420 2749 c0 -5 5 -7 10 -4 6 3 10 8 10 11 0 2 -4 4 -10 4 -5 0 -10
-5 -10 -11z"/>
<path d="M4325 2751 c-3 -5 4 -13 16 -16 28 -9 36 1 10 14 -12 7 -22 7 -26 2z"/>
<path d="M10597 2731 c-164 -86 -257 -206 -227 -295 15 -46 71 -109 125 -140
25 -15 45 -31 45 -36 0 -16 -83 -32 -136 -27 -76 8 -87 -5 -40 -49 l38 -36 84
4 c181 10 190 88 26 221 -39 32 -72 66 -72 76 0 24 56 111 93 145 39 35 144
89 157 81 12 -7 -3 -40 -33 -72 -18 -20 -19 -26 -7 -48 20 -37 55 -33 95 11
59 64 55 136 -10 178 -36 23 -76 20 -138 -13z"/>
<path d="M12535 2748 c-48 -17 -159 -94 -200 -139 -99 -110 -85 -203 47 -300
62 -46 68 -53 51 -63 -10 -6 -57 -11 -105 -11 -48 -1 -90 -4 -94 -8 -9 -9 24
-45 58 -63 28 -15 98 -18 160 -8 51 9 92 47 83 77 -13 42 -50 86 -117 139 -56
43 -68 58 -68 81 0 34 44 101 96 147 39 34 141 86 151 77 8 -9 -7 -45 -32 -75
-22 -27 -23 -30 -9 -51 24 -34 62 -24 101 27 45 59 45 102 -1 148 -36 36 -65
41 -121 22z"/>
<path d="M2148 2743 c6 -2 18 -2 25 0 6 3 1 5 -13 5 -14 0 -19 -2 -12 -5z"/>
<path d="M5185 2739 c-4 -6 -5 -12 -2 -15 2 -3 7 2 10 11 7 17 1 20 -8 4z"/>
<path d="M5060 2720 c0 -5 4 -10 9 -10 6 0 13 5 16 10 3 6 -1 10 -9 10 -9 0
-16 -4 -16 -10z"/>
<path d="M5146 2714 c-8 -22 1 -31 16 -16 9 9 9 15 1 23 -7 7 -12 5 -17 -7z"/>
<path d="M5276 2713 c-6 -14 -5 -15 5 -6 7 7 10 15 7 18 -3 3 -9 -2 -12 -12z"/>
<path d="M4177 2684 c-20 -13 -45 -24 -56 -24 -11 0 -23 -5 -26 -11 -4 -6 -13
-8 -20 -5 -7 2 -21 -2 -32 -9 -15 -11 -49 -13 -141 -9 -79 3 -122 1 -122 -6 0
-5 5 -10 10 -10 6 0 10 -8 10 -19 0 -42 121 -56 265 -32 115 20 138 23 183 22
23 -1 42 2 42 6 0 17 -18 34 -31 32 -8 -1 -34 3 -59 10 -41 12 -43 14 -25 27
10 8 42 14 72 14 40 0 53 4 53 15 0 8 -6 16 -12 16 -63 8 -79 5 -111 -17z"/>
<path d="M10055 2681 c-65 -37 -120 -99 -154 -170 -22 -47 -26 -70 -26 -142 0
-78 2 -89 28 -122 72 -95 178 -91 266 9 37 41 38 50 10 59 -14 5 -28 0 -42
-13 -40 -36 -82 -52 -121 -45 -54 9 -70 38 -63 114 7 75 16 86 56 69 41 -16
103 -15 138 4 32 17 95 80 112 114 21 40 -6 104 -54 129 -11 6 -38 14 -60 17
-33 5 -49 1 -90 -23z m113 -63 c42 -42 -33 -118 -116 -118 -49 0 -57 14 -31
50 47 64 118 97 147 68z"/>
<path d="M11335 2689 c-55 -29 -162 -122 -198 -171 -16 -23 -40 -64 -53 -91
-21 -47 -22 -53 -8 -86 8 -19 20 -39 27 -44 24 -16 122 -2 176 27 29 15 56 25
59 21 3 -3 -7 -58 -22 -123 -57 -235 -122 -301 -215 -217 -39 36 -71 45 -71
22 0 -20 57 -104 78 -116 38 -20 98 -24 130 -7 75 39 113 123 167 368 32 141
50 183 85 198 53 22 61 129 12 185 -49 57 -103 68 -167 34z m75 -89 c26 -26
27 -70 1 -70 -23 0 -35 -15 -51 -64 -11 -34 -20 -42 -86 -72 -40 -19 -84 -34
-98 -34 -63 0 -6 98 119 204 36 31 73 56 81 56 8 0 23 -9 34 -20z"/>
<path d="M5235 2687 c-4 -10 -5 -21 -1 -24 10 -10 18 4 13 24 -4 17 -4 17 -12
0z"/>
<path d="M11746 2678 c-24 -36 -94 -192 -116 -258 -27 -79 -27 -161 0 -185 30
-27 61 -9 187 115 62 61 116 110 122 110 5 0 11 -38 12 -84 3 -67 8 -89 24
-106 43 -48 93 -42 145 16 52 59 33 81 -43 49 -20 -8 -41 -15 -47 -15 -6 0
-10 34 -10 88 0 69 -4 94 -20 120 -38 61 -79 43 -223 -97 l-88 -86 31 85 c17
47 45 108 61 137 34 60 35 98 2 120 -20 13 -23 12 -37 -9z"/>
<path d="M5090 2649 c0 -5 5 -7 10 -4 6 3 10 8 10 11 0 2 -4 4 -10 4 -5 0 -10
-5 -10 -11z"/>
<path d="M5750 2629 c-26 -12 -39 -23 -32 -26 8 -3 19 0 25 6 6 6 19 11 28 11
9 0 22 7 29 15 17 20 4 19 -50 -6z"/>
<path d="M5044 2615 c-12 -8 -24 -12 -26 -9 -3 2 -3 -8 0 -23 l5 -27 9 24 c5
13 16 29 26 36 23 18 11 17 -14 -1z"/>
<path d="M1142 2609 c2 -7 10 -15 17 -17 8 -3 12 1 9 9 -2 7 -10 15 -17 17 -8
3 -12 -1 -9 -9z"/>
<path d="M2995 2609 c-11 -17 0 -20 21 -4 17 13 17 14 2 15 -9 0 -20 -5 -23
-11z"/>
<path d="M10899 2594 c-16 -43 -58 -216 -65 -270 -7 -54 11 -106 40 -117 21
-8 26 2 35 85 5 40 21 117 35 171 28 106 25 140 -14 150 -16 4 -23 -1 -31 -19z"/>
<path d="M5634 2602 c-15 -5 -19 -12 -15 -24 6 -15 9 -15 44 1 52 24 31 41
-29 23z"/>
<path d="M1580 2571 c0 -24 12 -32 30 -21 11 7 11 11 1 24 -18 22 -31 20 -31
-3z"/>
<path d="M2937 2566 c-4 -10 -1 -13 9 -9 7 3 14 9 14 14 0 14 -17 10 -23 -5z"/>
<path d="M4975 2568 c-11 -6 -24 -17 -28 -25 -5 -7 -12 -11 -18 -8 -5 3 -6 -1
-3 -9 9 -23 16 -20 54 19 34 35 32 44 -5 23z"/>
<path d="M1225 2560 c-3 -5 3 -10 15 -10 12 0 18 5 15 10 -3 6 -10 10 -15 10
-5 0 -12 -4 -15 -10z"/>
<path d="M5520 2540 c0 -5 7 -10 15 -10 8 0 15 5 15 10 0 6 -7 10 -15 10 -8 0
-15 -4 -15 -10z"/>
<path d="M969 2518 c-14 -9 -13 -14 9 -35 18 -18 27 -22 36 -13 8 8 6 15 -8
25 -10 8 -15 18 -11 24 8 14 -5 13 -26 -1z"/>
<path d="M2860 2495 c0 -13 4 -14 20 -5 11 6 20 13 20 15 0 3 -9 5 -20 5 -11
0 -20 -7 -20 -15z"/>
<path d="M5315 2490 c-8 -13 15 -13 35 0 12 8 11 10 -7 10 -12 0 -25 -4 -28
-10z"/>
<path d="M2994 2476 c-10 -8 -16 -17 -12 -21 8 -8 48 13 48 25 0 14 -13 12
-36 -4z"/>
<path d="M1685 2469 c-10 -14 -1 -21 19 -13 9 3 13 10 10 15 -7 12 -21 11 -29
-2z"/>
<path d="M3966 2472 c-9 -15 6 -52 21 -52 10 0 12 6 8 20 -4 11 -2 20 4 20 6
0 10 -6 9 -12 -4 -19 35 -21 57 -3 19 16 19 16 -6 11 -15 -3 -34 0 -45 9 -22
16 -40 19 -48 7z"/>
<path d="M5630 2470 c-8 -5 -12 -12 -9 -15 4 -3 12 1 19 10 14 17 11 19 -10 5z"/>
<path d="M1220 2441 c0 -6 9 -15 21 -21 18 -10 20 -9 17 7 -3 19 -38 32 -38
14z"/>
<path d="M5156 2442 c-3 -6 -1 -14 5 -17 15 -10 25 3 12 16 -7 7 -13 7 -17 1z"/>
<path d="M1398 2433 c7 -3 16 -2 19 1 4 3 -2 6 -13 5 -11 0 -14 -3 -6 -6z"/>
<path d="M5534 2425 c-10 -8 -14 -15 -8 -15 5 0 19 7 30 15 10 8 14 15 8 15
-5 0 -19 -7 -30 -15z"/>
<path d="M2090 2420 c0 -5 7 -10 15 -10 8 0 15 5 15 10 0 6 -7 10 -15 10 -8 0
-15 -4 -15 -10z"/>
<path d="M5330 2426 c0 -10 28 -13 41 -5 10 6 7 9 -13 9 -16 0 -28 -2 -28 -4z"/>
<path d="M5628 2423 c7 -3 16 -2 19 1 4 3 -2 6 -13 5 -11 0 -14 -3 -6 -6z"/>
<path d="M2747 2400 c-6 -23 3 -26 21 -8 16 16 15 28 -2 28 -7 0 -16 -9 -19
-20z"/>
<path d="M3170 2401 c0 -11 -4 -23 -10 -26 -5 -3 -10 -1 -10 5 0 6 -5 8 -11 4
-7 -4 -6 -11 4 -21 18 -19 32 -11 52 28 15 27 14 29 -5 29 -13 0 -20 -7 -20
-19z"/>
<path d="M5190 2410 c-10 -6 -11 -12 -5 -19 7 -6 18 -3 34 10 20 17 21 19 5
19 -11 0 -26 -5 -34 -10z"/>
<path d="M5475 2410 c-3 -5 -2 -10 4 -10 5 0 13 5 16 10 3 6 2 10 -4 10 -5 0
-13 -4 -16 -10z"/>
<path d="M1275 2400 c3 -5 8 -10 11 -10 2 0 4 5 4 10 0 6 -5 10 -11 10 -5 0
-7 -4 -4 -10z"/>
<path d="M1775 2400 c-3 -5 -2 -10 4 -10 5 0 13 5 16 10 3 6 2 10 -4 10 -5 0
-13 -4 -16 -10z"/>
<path d="M5405 2390 c-3 -5 3 -10 14 -10 12 0 21 5 21 10 0 6 -6 10 -14 10 -8
0 -18 -4 -21 -10z"/>
<path d="M2307 2360 c-15 -16 -25 -30 -21 -30 14 0 45 22 54 40 16 30 -3 24
-33 -10z"/>
<path d="M2894 2376 c-3 -8 -21 -22 -41 -31 -19 -9 -32 -19 -30 -22 9 -9 67 8
67 20 0 6 7 19 17 29 10 11 12 18 4 18 -6 0 -14 -6 -17 -14z"/>
<path d="M5545 2380 c-3 -6 1 -7 9 -4 18 7 21 14 7 14 -6 0 -13 -4 -16 -10z"/>
<path d="M1334 2365 c11 -8 27 -15 35 -15 10 1 7 6 -9 15 -33 19 -50 18 -26 0z"/>
<path d="M2711 2366 c-8 -9 -11 -19 -7 -23 9 -9 29 13 24 27 -2 8 -8 7 -17 -4z"/>
<path d="M5279 2354 c-12 -15 -11 -16 11 -9 46 14 58 24 29 25 -15 0 -33 -7
-40 -16z"/>
<path d="M3080 2351 c0 -5 9 -7 20 -4 11 3 20 7 20 9 0 2 -9 4 -20 4 -11 0
-20 -4 -20 -9z"/>
<path d="M3730 2330 c12 -16 23 -30 25 -30 2 0 -3 14 -11 30 -9 17 -20 30 -25
30 -6 0 -1 -13 11 -30z"/>
<path d="M5435 2350 c-3 -5 -1 -10 4 -10 6 0 11 5 11 10 0 6 -2 10 -4 10 -3 0
-8 -4 -11 -10z"/>
<path d="M5470 2349 c0 -5 5 -7 10 -4 6 3 10 8 10 11 0 2 -4 4 -10 4 -5 0 -10
-5 -10 -11z"/>
<path d="M5730 2334 c0 -8 5 -12 10 -9 6 3 10 10 10 16 0 5 -4 9 -10 9 -5 0
-10 -7 -10 -16z"/>
<path d="M2664 2326 c-10 -8 -15 -18 -11 -22 4 -4 15 0 24 9 22 21 12 31 -13
13z"/>
<path d="M5117 2329 c8 -8 19 -8 40 -1 28 10 28 10 -11 11 -29 1 -37 -2 -29
-10z"/>
<path d="M5707 2303 c-4 -3 -7 -11 -7 -17 0 -6 5 -5 12 2 6 6 9 14 7 17 -3 3
-9 2 -12 -2z"/>
<path d="M5230 2290 c0 -5 6 -10 14 -10 8 0 18 5 21 10 3 6 -3 10 -14 10 -12
0 -21 -4 -21 -10z"/>
<path d="M3776 2278 c19 -31 99 -124 118 -138 12 -8 30 -22 40 -32 11 -10 25
-18 32 -18 6 0 17 -7 24 -15 14 -17 50 -20 50 -4 0 5 -13 15 -30 20 -16 6 -30
15 -30 20 0 5 -4 9 -10 9 -5 0 -48 38 -94 85 -46 47 -90 85 -96 85 -6 0 -8 -5
-4 -12z"/>
<path d="M5374 2281 c-13 -13 0 -20 29 -14 48 9 58 24 13 21 -20 -2 -39 -5
-42 -7z"/>
<path d="M1570 2260 c0 -6 7 -13 15 -17 24 -9 27 1 5 15 -13 8 -20 8 -20 2z"/>
<path d="M5260 2238 c-14 -6 -20 -12 -13 -15 6 -2 24 3 40 11 32 17 11 20 -27
4z"/>
<path d="M5190 2218 c-14 -6 -20 -12 -13 -15 7 -2 23 3 35 11 25 18 15 20 -22
4z"/>
<path d="M5007 2198 c-23 -14 7 -28 38 -18 17 5 46 13 65 19 32 9 29 10 -28 8
-35 -1 -69 -5 -75 -9z"/>
<path d="M4925 2180 c3 -5 12 -10 20 -10 8 0 17 5 20 10 4 6 -5 10 -20 10 -15
0 -24 -4 -20 -10z"/>
<path d="M2955 2150 c-3 -6 1 -7 9 -4 18 7 21 14 7 14 -6 0 -13 -4 -16 -10z"/>
<path d="M2870 2125 c-24 -14 -24 -14 -3 -15 28 0 53 10 53 21 0 13 -21 10
-50 -6z"/>
<path d="M1885 2090 c3 -5 14 -10 23 -10 15 0 15 2 2 10 -20 13 -33 13 -25 0z"/>
<path d="M2400 2069 c0 -5 5 -7 10 -4 6 3 10 8 10 11 0 2 -4 4 -10 4 -5 0 -10
-5 -10 -11z"/>
<path d="M2038 2053 c7 -3 16 -2 19 1 4 3 -2 6 -13 5 -11 0 -14 -3 -6 -6z"/>
<path d="M2778 2003 c7 -3 16 -2 19 1 4 3 -2 6 -13 5 -11 0 -14 -3 -6 -6z"/>
<path d="M2680 1990 c0 -5 5 -10 10 -10 6 0 10 5 10 10 0 6 -4 10 -10 10 -5 0
-10 -4 -10 -10z"/>
<path d="M2503 1983 c9 -2 23 -2 30 0 6 3 -1 5 -18 5 -16 0 -22 -2 -12 -5z"/>
<path d="M3075 1980 c-8 -13 25 -13 45 0 12 8 9 10 -12 10 -15 0 -30 -4 -33
-10z"/>
<path d="M3020 1960 c0 -5 5 -10 10 -10 6 0 10 5 10 10 0 6 -4 10 -10 10 -5 0
-10 -4 -10 -10z"/>
<path d="M2903 1936 c-27 -13 -31 -32 -5 -20 9 4 31 9 47 10 17 1 33 3 38 3 4
1 7 5 7 9 0 13 -61 11 -87 -2z"/>
<path d="M2810 1920 c0 -5 4 -10 9 -10 6 0 13 5 16 10 3 6 -1 10 -9 10 -9 0
-16 -4 -16 -10z"/>
<path d="M2034 1909 c-17 -6 -17 -7 6 -13 62 -14 136 -24 145 -18 9 6 -11 12
-96 31 -19 4 -44 4 -55 0z"/>
<path d="M2330 1910 c0 -5 7 -10 15 -10 8 0 15 5 15 10 0 6 -7 10 -15 10 -8 0
-15 -4 -15 -10z"/>
<path d="M2735 1910 c-4 -6 8 -10 29 -10 20 0 36 5 36 10 0 6 -13 10 -29 10
-17 0 -33 -4 -36 -10z"/>
<path d="M2360 1861 c0 -13 31 -18 60 -11 24 6 23 7 -9 13 -44 9 -51 9 -51 -2z"/>
<path d="M2150 1801 c-14 -4 -20 -10 -15 -13 14 -8 75 2 75 13 0 10 -23 10
-60 0z"/>
<path d="M2238 1773 c7 -3 16 -2 19 1 4 3 -2 6 -13 5 -11 0 -14 -3 -6 -6z"/>
<path d="M2432 1773 c-21 -8 -4 -21 23 -16 13 3 22 9 19 14 -6 10 -21 10 -42
2z"/>
<path d="M2495 1760 c3 -5 8 -10 11 -10 2 0 4 5 4 10 0 6 -5 10 -11 10 -5 0
-7 -4 -4 -10z"/>
<path d="M2415 1699 c-13 -5 -1 -8 36 -8 30 -1 60 -6 67 -13 9 -9 15 -9 24 0
10 10 10 15 -2 22 -17 10 -98 10 -125 -1z"/>
<path d="M2406 1631 c-31 -12 -1 -24 40 -17 27 6 34 4 34 -9 0 -8 4 -15 9 -15
10 0 59 39 51 40 -42 6 -119 7 -134 1z"/>
<path d="M10357 1414 c-4 -4 -7 -16 -7 -26 0 -14 6 -19 23 -16 14 2 22 10 22
23 0 20 -25 32 -38 19z"/>
<path d="M7804 1386 c-62 -28 -100 -104 -92 -187 6 -63 29 -96 77 -110 31 -9
48 -9 82 2 39 12 44 18 47 47 4 39 -12 42 -30 5 -18 -38 -75 -44 -104 -12 -28
31 -27 156 2 196 44 60 114 68 114 12 0 -22 5 -29 19 -29 13 0 20 10 24 37 4
20 4 39 2 42 -12 12 -113 10 -141 -3z"/>
<path d="M9363 1385 c-54 -25 -87 -78 -91 -150 -5 -77 15 -120 64 -141 35 -15
90 -11 127 8 22 11 24 68 2 68 -8 0 -15 -8 -15 -18 0 -27 -20 -42 -56 -42 -58
0 -80 41 -72 136 5 61 29 101 72 122 36 18 64 7 68 -26 2 -15 10 -28 19 -30
13 -2 18 7 21 35 3 21 4 40 2 42 -10 12 -113 9 -141 -4z"/>
<path d="M8445 1350 c-8 -16 -23 -34 -32 -39 -15 -9 -16 -12 -4 -20 12 -8 12
-23 2 -97 -10 -74 -10 -89 2 -102 18 -17 69 -9 89 15 11 14 9 15 -21 8 l-33
-7 7 73 c9 100 12 109 41 109 15 0 24 6 24 15 0 9 -9 15 -25 15 -22 0 -24 3
-18 30 7 39 -12 39 -32 0z"/>
<path d="M10207 1351 c-6 -17 -19 -34 -29 -37 -20 -6 -24 -20 -6 -26 9 -3 9
-25 -1 -93 -10 -75 -10 -90 2 -103 18 -17 69 -9 89 15 11 14 9 15 -21 8 l-34
-7 7 68 c11 104 15 114 42 114 15 0 24 6 24 15 0 9 -9 15 -25 15 -22 0 -25 3
-19 24 9 37 -15 43 -29 7z"/>
<path d="M7977 1314 c-4 -4 -3 -12 1 -18 4 -6 7 -54 7 -106 0 -93 0 -94 26
-104 19 -6 35 -5 57 7 27 13 33 13 43 1 15 -19 23 -18 50 7 20 17 21 20 5 15
-18 -6 -18 -2 -13 51 4 32 9 79 13 106 6 43 5 47 -14 47 -22 0 -27 -14 -38
-109 -8 -71 -31 -104 -67 -99 -25 3 -27 24 -13 141 l8 67 -30 0 c-16 0 -32 -3
-35 -6z"/>
<path d="M8252 1304 c-37 -26 -30 -74 18 -117 22 -19 40 -40 40 -45 0 -20 -30
-34 -66 -30 -49 4 -58 -19 -11 -27 63 -12 117 18 117 65 0 18 -12 38 -40 64
-22 20 -40 43 -40 50 0 24 27 38 60 31 23 -5 30 -3 30 9 0 22 -77 22 -108 0z"/>
<path d="M8595 1298 c-71 -55 -73 -180 -4 -208 82 -34 172 65 149 165 -5 20
-17 43 -27 50 -28 22 -86 18 -118 -7z m84 -11 c33 -41 18 -145 -25 -173 -23
-16 -26 -15 -44 1 -34 31 -23 142 17 173 22 16 38 15 52 -1z"/>
<path d="M8797 1313 c-4 -3 -2 -12 4 -20 8 -9 8 -33 0 -88 -16 -110 -15 -124
9 -118 14 4 21 17 25 52 16 110 39 151 89 151 18 0 19 -5 12 -82 -4 -46 -8
-92 -9 -103 -1 -14 4 -20 18 -20 17 0 21 10 31 75 12 86 25 116 55 125 37 12
44 -7 31 -97 -9 -69 -8 -85 3 -97 11 -12 19 -12 40 -3 27 13 35 35 8 25 -17
-7 -17 1 3 133 10 68 -43 98 -99 54 -14 -11 -27 -20 -30 -20 -3 0 -7 9 -10 20
-7 27 -56 27 -91 -1 l-26 -20 0 20 c0 16 -6 21 -28 21 -16 0 -32 -3 -35 -7z"/>
<path d="M9549 1318 c0 -2 -2 -37 -3 -78 -2 -41 -7 -94 -11 -117 -7 -39 -6
-43 13 -43 24 0 28 11 37 97 7 66 27 95 67 97 16 1 24 8 26 24 4 27 -22 30
-56 6 -20 -14 -22 -14 -22 0 0 10 -9 16 -25 16 -14 0 -25 -1 -26 -2z"/>
<path d="M9746 1290 c-25 -23 -37 -44 -45 -80 -16 -72 3 -111 61 -125 31 -8
98 20 98 41 0 10 -5 10 -27 -2 -39 -20 -59 -18 -77 8 -24 33 -20 45 17 52 79
15 127 77 91 117 -27 29 -77 24 -118 -11z m79 -25 c0 -24 -7 -34 -37 -50 -20
-11 -40 -17 -43 -13 -8 8 22 80 38 90 23 15 42 3 42 -27z"/>
<path d="M9969 1293 c-62 -52 -79 -144 -34 -188 28 -29 51 -31 82 -10 18 13
22 13 33 0 15 -18 32 -19 47 -4 9 9 8 15 -1 24 -10 11 -10 28 0 92 20 120 22
113 -40 113 -45 0 -60 -5 -87 -27z m91 -15 c0 -57 -21 -141 -37 -154 -47 -35
-76 6 -61 86 9 49 45 90 79 90 13 0 19 -7 19 -22z"/>
<path d="M10315 1311 c-3 -6 1 -13 9 -18 12 -7 12 -21 0 -98 -11 -77 -11 -92
1 -104 11 -12 19 -12 40 -3 27 13 35 35 8 25 -14 -6 -15 0 -9 43 3 27 9 75 13
107 l6 57 -31 0 c-17 0 -33 -4 -37 -9z"/>
<path d="M10488 1300 c-32 -24 -58 -79 -58 -119 0 -99 99 -132 170 -56 44 47
45 148 3 181 -27 20 -86 17 -115 -6z m88 -25 c28 -43 7 -142 -36 -165 -30 -16
-60 19 -60 69 0 97 58 154 96 96z"/>
<path d="M10694 1268 c1 -29 -3 -83 -8 -120 -8 -64 -7 -68 12 -68 16 0 21 8
26 40 3 22 9 59 12 82 7 45 44 88 77 88 19 0 20 -5 14 -72 -4 -40 -9 -82 -12
-93 -9 -33 9 -51 41 -40 15 6 29 16 32 23 2 7 -2 10 -12 6 -19 -7 -19 -3 -4
87 14 87 3 119 -40 119 -16 0 -41 -9 -56 -21 l-26 -20 0 20 c0 16 -6 21 -28
21 -28 0 -29 -1 -28 -52z"/>
<path d="M10961 1296 c-30 -32 -23 -65 25 -108 22 -20 34 -39 32 -53 -3 -17
-10 -20 -50 -18 -58 2 -68 -22 -13 -33 71 -13 130 38 104 89 -7 11 -27 35 -46
53 -46 44 -27 81 39 71 9 -1 18 3 20 8 2 6 -17 11 -42 13 -38 2 -50 -1 -69
-22z"/>
<path d="M8158 493 c18 -2 45 -2 60 0 15 2 0 4 -33 4 -33 0 -45 -2 -27 -4z"/>
<path d="M8363 493 c15 -2 39 -2 55 0 15 2 2 4 -28 4 -30 0 -43 -2 -27 -4z"/>
<path d="M8480 489 c0 -5 5 -7 10 -4 6 3 10 8 10 11 0 2 -4 4 -10 4 -5 0 -10
-5 -10 -11z"/>
<path d="M9648 493 c6 -2 18 -2 25 0 6 3 1 5 -13 5 -14 0 -19 -2 -12 -5z"/>
<path d="M9705 490 c3 -5 8 -10 11 -10 2 0 4 5 4 10 0 6 -5 10 -11 10 -5 0 -7
-4 -4 -10z"/>
<path d="M10038 493 c6 -2 18 -2 25 0 6 3 1 5 -13 5 -14 0 -19 -2 -12 -5z"/>
<path d="M11465 490 c-20 -5 11 -8 89 -9 66 0 117 1 115 3 -9 8 -176 13 -204
6z"/>
<path d="M8298 483 c7 -3 16 -2 19 1 4 3 -2 6 -13 5 -11 0 -14 -3 -6 -6z"/>
<path d="M11833 483 c20 -2 54 -2 75 0 20 2 3 4 -38 4 -41 0 -58 -2 -37 -4z"/>
<path d="M11988 483 c17 -2 47 -2 65 0 17 2 3 4 -33 4 -36 0 -50 -2 -32 -4z"/>
<path d="M12298 483 c18 -2 45 -2 60 0 15 2 0 4 -33 4 -33 0 -45 -2 -27 -4z"/>
<path d="M12458 483 c7 -3 16 -2 19 1 4 3 -2 6 -13 5 -11 0 -14 -3 -6 -6z"/>
<path d="M12898 483 c12 -2 30 -2 40 0 9 3 -1 5 -23 4 -22 0 -30 -2 -17 -4z"/>
<path d="M13176 482 c5 -5 41 -5 79 -2 l70 7 -79 1 c-44 1 -76 -2 -70 -6z"/>
<path d="M13663 483 c9 -2 23 -2 30 0 6 3 -1 5 -18 5 -16 0 -22 -2 -12 -5z"/>
</g>
</svg>
